<?xml version="1.0" encoding="utf-8"?>
<!-- Generator: Adobe Illustrator 24.3.0, SVG Export Plug-In . SVG Version: 6.00 Build 0)  -->
<svg version="1.1" id="Layer_1" xmlns="http://www.w3.org/2000/svg" x="0px" y="0px"
	 viewBox="0 0 1390 1391" style="enable-background:new 0 0 1390 1391;" xml:space="preserve">
<style type="text/css">
	.st0{fill:#282828;}
	.st1{fill:#F08F01;}
	.st2{fill:none;stroke:#FCFCFC;stroke-width:44.896;stroke-linecap:round;stroke-linejoin:round;stroke-miterlimit:10;}
	.st3{fill:#DF0614;}
	.st4{fill:#F2F2F2;}
	.st5{fill:#FF0000;}
</style>
<path class="st0" d="M1118.56,1390.96H271.44C121.53,1390.96,0,1269.43,0,1119.52l0-848.04C0,121.57,121.53,0.04,271.44,0.04h847.11
	c149.91,0,271.44,121.53,271.44,271.44v848.04C1390,1269.43,1268.47,1390.96,1118.56,1390.96z"/>
<g>
	<path class="st1" d="M2468.8,2917.98c-0.44-7.91-0.56-15.17-0.59-22.49c0.04-7.26,0.16-14.46,0.47-21.6
		c0.61-14.29,1.64-28.45,3.24-42.52c0.34-3.53,0.84-7.03,1.27-10.54c0.45-3.51,0.86-7.02,1.42-10.51l1.57-10.48
		c0.56-3.48,1.2-6.96,1.8-10.44c1.14-6.96,2.65-13.86,4.01-20.78c0.69-3.46,1.54-6.89,2.3-10.33c0.8-3.44,1.53-6.89,2.4-10.3
		c13.5-54.78,34.15-107.97,62.15-157.18c13.98-24.6,29.76-48.18,47.13-70.48c17.44-22.25,36.61-43.06,56.98-62.45l7.7-7.21l3.85-3.6
		c1.27-1.22,2.65-2.31,3.97-3.46l16.01-13.67c1.3-1.13,2.74-2.29,4.17-3.44l4.27-3.38c2.84-2.19,5.68-4.37,8.53-6.48
		c2.84-2.15,5.71-4.17,8.57-6.24l8.63-6.03c11.56-7.92,23.31-15.39,35.28-22.44c11.97-7.05,24.09-13.82,36.46-20.06
		c24.65-12.68,50.15-23.65,76.22-33.08c26.07-9.41,52.77-17.17,79.9-23.04c27.13-5.87,54.69-9.85,82.4-11.78
		c27.7-1.94,55.53-1.83,83.16,0.29c6.9,0.6,13.82,0.98,20.68,1.96l10.3,1.28c3.43,0.46,6.88,0.77,10.28,1.41l20.45,3.45
		c7.56,1.38,14.29,3.06,21.08,4.81c26.99,7.01,52.8,16.06,78.12,26.5l9.45,4c3.15,1.33,6.24,2.79,9.37,4.17
		c6.26,2.74,12.38,5.79,18.55,8.72c3.07,1.49,6.1,3.08,9.15,4.62c3.04,1.57,6.11,3.06,9.1,4.72c6,3.28,12.05,6.44,17.93,9.93
		c23.7,13.62,46.54,28.77,68.21,45.48c21.67,16.71,42.15,35,61.09,54.78c18.94,19.77,36.33,41.03,51.89,63.51
		c15.58,22.47,29.26,46.18,41.14,70.7l8.5,18.57c2.61,6.29,5.11,12.61,7.67,18.91c4.81,12.71,9.32,25.54,13.14,38.56
		c7.77,26,13.53,52.53,17.31,79.31c0.5,3.34,0.84,6.71,1.26,10.06l0.61,5.03l0.3,2.52l0.23,2.53l0.92,10.1
		c0.33,3.36,0.46,6.75,0.7,10.12c0.83,13.49,1.14,27.04,0.82,40.58c-0.27,13.56-1.29,27.14-2.79,40.51
		c-1.5,13.4-3.56,26.69-6.04,39.88c-4.98,26.38-11.88,52.34-20.5,77.68c-17.36,50.62-41.75,98.86-73.21,141.93
		c-31.25,43.19-68.89,81.41-110.8,113.69c-41.9,32.33-87.92,58.83-135.99,80.07c-48.1,21.19-98.35,37.37-149.74,47.42
		c50.94-12.08,100.29-30.2,147.11-53.08c46.78-22.94,91.07-50.89,130.8-84.15c39.74-33.21,74.76-71.82,103.22-114.63
		c28.66-42.69,50.15-89.86,64.81-138.86c7.27-24.53,12.85-49.53,16.58-74.76c1.86-12.61,3.3-25.28,4.21-37.94
		c0.91-12.69,1.35-25.27,1.1-37.88c-0.2-12.63-1-25.25-2.28-37.84c-0.35-3.15-0.59-6.3-1.03-9.43l-1.23-9.41l-0.31-2.35l-0.38-2.34
		l-0.76-4.69c-0.52-3.12-0.96-6.25-1.55-9.36c-4.53-24.9-10.9-49.42-19.08-73.27c-4.02-11.95-8.69-23.66-13.59-35.23
		c-2.6-5.73-5.14-11.48-7.77-17.18l-8.52-16.8c-11.85-22.13-25.26-43.37-40.32-63.33c-30.05-39.99-66.55-74.88-107.32-103.76
		c-20.38-14.46-41.8-27.47-63.96-39.06c-5.49-2.98-11.16-5.65-16.76-8.43c-2.79-1.42-5.66-2.66-8.49-3.98
		c-2.85-1.29-5.67-2.65-8.53-3.89c-5.76-2.45-11.46-5.02-17.28-7.3c-2.91-1.15-5.78-2.37-8.71-3.47l-8.77-3.31
		c-11.73-4.29-23.57-8.28-35.5-11.83c-11.92-3.56-23.95-6.69-35.89-9.28c-5.93-1.28-11.97-2.51-17.33-3.24l-18.38-2.35
		c-3.05-0.46-6.14-0.6-9.21-0.89l-9.22-0.77c-6.13-0.65-12.3-0.71-18.45-1.01c-49.23-1.84-98.54,3.66-146.15,16.01
		c-23.81,6.16-47.2,13.98-70.02,23.26c-22.8,9.3-45.09,19.95-66.52,32.09c-10.77,5.97-21.26,12.42-31.59,19.06
		c-10.32,6.65-20.4,13.64-30.16,20.92l-7.24,5.51c-2.36,1.87-4.78,3.71-7.08,5.61c-2.35,1.88-4.62,3.78-6.89,5.67l-3.32,2.85
		c-1.08,0.95-2.16,1.88-3.28,2.95l-13.36,12.38c-1.1,1.04-2.26,2.02-3.31,3.12l-3.19,3.24l-6.38,6.47
		c-16.85,17.39-32.52,35.81-46.61,55.35c-14.02,19.59-26.61,40.15-37.65,61.52c-22.1,42.73-37.88,88.71-47.56,135.99
		c-0.64,2.95-1.12,5.93-1.7,8.89c-0.53,2.97-1.15,5.92-1.62,8.9c-0.91,5.97-1.99,11.9-2.71,17.89c-0.39,2.99-0.82,5.97-1.18,8.96
		l-0.98,8.98c-0.36,2.99-0.59,5.99-0.85,8.99c-0.24,3-0.56,5.99-0.72,8.99c-0.9,11.99-1.26,23.98-1.3,35.84
		c-0.02,5.94,0.12,11.82,0.32,17.65c0.25,5.76,0.6,11.58,1.1,16.72c2.7,27.49-17.4,51.96-44.89,54.66s-51.96-17.4-54.66-44.89
		c-0.06-0.63-0.11-1.26-0.15-1.88L2468.8,2917.98z"/>
</g>
<line class="st2" x1="-1211.26" y1="2161.7" x2="-1370.19" y2="2327.97"/>
<g>
	<path class="st3" d="M2709.23,2050.59c18.37-9.01,37.08-17.37,56.13-24.98c19.05-7.61,38.43-14.47,58.12-20.39
		c39.36-11.89,79.85-20.39,120.8-24.92c40.94-4.56,82.32-5.06,123.24-1.49c40.92,3.56,81.37,11.23,120.51,22.74
		c39.15,11.5,76.99,26.84,112.87,45.55c35.89,18.7,69.83,40.73,101.38,65.55c63.09,49.66,116.69,110.4,157.7,178.37
		c20.54,33.99,37.87,69.91,51.55,107.01c13.69,37.1,23.77,75.4,30.16,114.17c12.81,77.56,10.75,156.95-5.29,232.89
		c-15.99,75.96-45.95,148.51-87.86,212.81c-20.93,32.16-44.81,62.27-71.2,89.81c-26.39,27.55-55.28,52.52-86.13,74.57
		c29.37-23.99,56.42-50.63,80.68-79.47c24.27-28.84,45.74-59.86,64.12-92.51c36.79-65.28,60.97-137.08,71.53-210.36
		c10.6-73.28,7.54-148.06-9-219.24c-8.25-35.59-19.85-70.28-34.58-103.44c-14.73-33.18-32.59-64.77-53.22-94.41
		c-41.23-59.38-93.16-110.87-151.96-151.31c-58.79-40.44-124.61-69.73-192.99-85.05c-34.18-7.69-68.95-11.96-103.7-12.73
		c-34.75-0.77-69.47,1.89-103.58,7.95c-34.12,6.03-67.62,15.35-100.12,27.51c-16.26,6.05-32.25,12.9-47.96,20.39
		c-15.71,7.48-31.15,15.61-46.29,24.29l-0.01,0.01c-28.05,16.07-63.81,6.37-79.88-21.68c-16.07-28.05-6.37-63.81,21.68-79.88
		C2706.96,2051.75,2708.16,2051.12,2709.23,2050.59z"/>
</g>
<g>
	<g id="Livello_107_1_">
		<path class="st4" d="M708.22,647.12l-171.8,6.99c-26.67,1.07-50.87,14.8-65.79,38.02c-6.13,9.53-10.14,20.36-11.69,31.59
			c-3.79,27.47,5.77,53.76,25.47,71.94l0,0c16.03,14.78,36.85,22.42,58.62,21.53l171.81-6.98c35.36-1.44,65.49-25.36,75.12-58.93
			l-37.72,1.54c-8.14,13.72-22.77,22.52-38.78,23.17l-176.12,7.15l-0.01-0.12c-11.77-0.32-22.86-4.8-31.53-12.79
			c-9.26-8.54-14.64-20.1-15.15-32.58c-0.52-12.66,4.03-24.75,12.78-34.05c7.97-8.46,18.55-13.7,30.09-14.96l-0.01-0.1l2.42-0.11
			c0.33-0.02,0.66-0.04,0.98-0.05c0.1,0,0.21-0.01,0.3-0.01l0.59-0.03l171.8-6.99c12.64-0.51,24.71,3.93,33.99,12.49
			c2.4,2.21,4.56,4.66,6.45,7.3l37.77-1.54c-4.46-11.73-11.66-22.36-20.98-30.96C750.81,653.89,729.99,646.24,708.22,647.12
			 M970.13,711.23c14.78-16.03,22.42-36.85,21.53-58.63c-0.88-21.79-10.2-41.92-26.23-56.7c-16.02-14.77-36.85-22.42-58.63-21.53
			L735,581.34c-35.33,1.43-65.46,25.33-75.11,58.86l36.12-1.47c7.74-12.72,21.19-21.22,36.15-22.86l0-0.1l2.38-0.11
			c0.31-0.02,0.64-0.04,0.96-0.05c0.1,0,0.19-0.01,0.29-0.01l0.6-0.03l171.8-6.98c12.64-0.51,24.72,3.93,34.01,12.5
			c9.3,8.58,14.7,20.25,15.22,32.89c1.06,26.09-19.31,48.18-45.39,49.23l-176.1,7.17l-0.01-0.12c-11.78-0.32-22.86-4.79-31.53-12.79
			c-2.34-2.16-4.44-4.52-6.29-7.06l-36.12,1.47c4.47,11.77,11.66,22.41,21,31.02c16.03,14.78,36.85,22.43,58.63,21.55l171.8-6.98
			C935.21,736.57,955.35,727.26,970.13,711.23"/>
	</g>
	<g id="Livello_1_2_">
	</g>
</g>
<g>
	<g>
		<path class="st5" d="M1072.72,307c-9.38-7.76-19.19-15.11-29.2-22.11c-10.01-7-20.31-13.58-30.74-19.89
			c-5.15-3.22-10.5-6.24-15.79-9.18l-8-4.42l-3.97-2.17l-4.04-2.1l-8.07-4.21c-2.71-1.33-5.43-2.67-8.21-4.07
			c-2.71-1.33-5.43-2.67-8.21-3.93l-8.35-3.79c-44.4-19.93-91.32-34.16-139.17-41.48c-23.96-3.56-48.14-5.38-72.32-5.38
			c-24.11,0.06-48.23,1.94-72.14,5.56l-17.71,3.29l-4.46,0.82l-4.39,1.03l-8.79,2.06l-8.79,2.06c-2.86,0.76-5.79,1.58-8.72,2.41
			l-8.72,2.41c-2.86,0.9-5.72,1.79-8.58,2.69c-22.88,7.31-45.21,16.44-66.71,27.11c-42.99,21.33-82.39,49.5-117.33,82.28l-6.5,6.18
			l-6.34,6.3c-2.1,2.08-4.2,4.31-6.29,6.39c-2.03,2.15-4.2,4.31-6.16,6.53c-8.11,8.76-15.95,17.8-23.51,27.11
			c-15.05,18.57-28.91,38.18-41.18,58.57c-24.46,40.84-42.73,85.4-54.93,131.31l-1.13,4.32l-1.06,4.39l-2.12,8.64
			c-1.2,5.78-2.55,11.56-3.61,17.49c-2.34,11.63-3.98,23.41-5.41,35.12c-2.72,23.55-3.7,47.18-3.08,70.75
			c0.76,23.57,3.41,47.07,7.66,70.23l1.65,8.65c0.62,2.86,1.31,5.79,1.92,8.65l1.92,8.65c0.69,2.79,1.38,5.58,2.2,8.37
			c3.1,11.23,6.69,22.4,10.84,33.43c16.24,44.18,38.56,86.36,65.84,124.58c13.74,19.01,28.6,37.18,44.8,54.03
			c16.19,16.85,33.57,32.52,52,46.73c2.3,1.75,4.59,3.64,6.95,5.32l7.09,5.04c2.36,1.68,4.66,3.43,7.09,5.04
			c2.36,1.68,4.8,3.29,7.17,4.83c9.67,6.37,19.62,12.33,29.85,17.87c2.51,1.4,5.08,2.73,7.73,4.14l3.83,2.03l3.9,1.96
			c2.65,1.26,5.22,2.6,7.87,3.86l7.87,3.72c2.65,1.26,5.29,2.39,8.01,3.58l8.01,3.44l8.15,3.3c2.72,1.05,5.43,2.25,8.15,3.16
			c43.59,16.59,89.29,27.19,135.49,31.31c23.14,2.03,46.35,2.59,69.5,1.54l8.65-0.53c2.86-0.2,5.79-0.33,8.65-0.67
			c5.72-0.54,11.51-1.01,17.22-1.69c5.79-0.61,11.44-1.5,17.16-2.32c5.65-0.89,11.37-1.85,16.88-3.01
			c5.58-1.1,11.16-2.33,16.67-3.64c2.72-0.62,5.51-1.45,8.23-2.2l8.3-2.27l4.12-1.17c1.4-0.41,2.79-0.69,4.12-1.17l8.17-2.69
			c5.44-1.8,10.96-3.52,16.19-5.67l8.03-3.11c2.72-1.04,5.37-2,7.96-3.18c5.24-2.28,10.54-4.5,15.71-6.85l15.5-7.48
			c5.03-2.63,10.06-5.41,15.15-8.11c40.02-22.25,76.77-50.44,108.67-83.1l0.12-0.12c12.51-12.85,33.16-13.06,46.01-0.55
			c12.85,12.51,13.06,33.16,0.55,46.01c-0.21,0.21-0.56,0.56-0.7,0.69c-37.4,36.19-79.79,66.93-125.79,90.82
			c-5.79,2.84-11.59,5.82-17.38,8.66l-17.73,8.03c-6,2.49-12,4.84-18.07,7.26c-2.93,1.25-6.07,2.28-9.14,3.39l-9.14,3.25
			c-6.07,2.28-12.28,4-18.49,5.87l-9.35,2.76c-1.53,0.55-3.07,0.83-4.74,1.24l-4.67,1.17l-9.48,2.34c-3.14,0.76-6.21,1.58-9.48,2.2
			c-6.42,1.37-12.83,2.61-19.25,3.7c-6.41,1.09-12.83,1.91-19.24,2.87c-6.41,0.68-12.83,1.49-19.24,2.03
			c-6.41,0.68-12.83,0.94-19.24,1.33c-3.21,0.27-6.41,0.26-9.62,0.39l-9.69,0.32c-25.65,0.48-51.36-0.79-76.85-3.8
			c-50.92-6.08-100.92-19.2-148.1-38.59c-2.99-1.19-5.92-2.46-8.84-3.72l-8.77-3.79l-8.63-4.07c-2.85-1.33-5.78-2.74-8.63-4.21
			l-8.56-4.28c-2.85-1.47-5.64-3.01-8.49-4.49l-4.17-2.24l-4.17-2.38c-2.78-1.54-5.57-3.08-8.35-4.77
			c-10.99-6.45-21.84-13.31-32.34-20.66c-2.64-1.82-5.21-3.71-7.86-5.53c-2.57-1.89-5.08-3.85-7.65-5.74l-7.58-5.81
			c-2.5-1.96-4.94-3.99-7.44-6.09c-19.81-16.16-38.29-33.78-55.37-52.65c-17.08-18.87-32.77-38.99-46.99-60.01
			c-28.37-42.11-50.87-87.69-66.96-135.61c-4-12-7.59-24.14-10.69-36.62c-0.76-3.14-1.51-6.28-2.13-9.41l-1.85-9.27
			c-0.62-3.14-1.24-6.14-1.78-9.34l-1.5-9.34c-3.96-24.96-5.97-50.19-6.1-75.49c-0.06-25.23,1.83-50.45,5.32-75.31
			c1.92-12.47,4.05-24.87,6.81-37.05c1.27-6.13,2.9-12.19,4.31-18.31l2.47-9.12l1.2-4.53l1.34-4.53
			c14.23-48.04,34.79-94.18,61.69-136.46c13.52-21.07,28.49-41.1,44.72-60c8.11-9.45,16.5-18.62,25.24-27.59
			c2.17-2.29,4.4-4.38,6.64-6.6s4.4-4.38,6.71-6.53l6.78-6.46l6.99-6.25c37.18-33.05,78.94-61.08,124.02-81.98
			c22.54-10.45,45.84-19.16,69.63-26.12c3-0.9,5.93-1.72,8.93-2.62l9-2.27c3-0.76,6-1.51,9-2.27l9.13-1.85l9.13-1.85l4.53-0.89
			l4.6-0.68l18.34-2.8c24.54-2.99,49.28-4.23,73.95-3.6c24.67,0.64,49.26,3.15,73.5,7.55c48.47,8.79,95.46,24.48,139.51,45.88
			l8.28,4c2.78,1.26,5.43,2.8,8.21,4.21c2.71,1.47,5.43,2.8,8.14,4.28l8,4.42l4.03,2.24l3.96,2.31l7.93,4.62
			c5.15,3.22,10.43,6.3,15.58,9.67c10.29,6.58,20.38,13.51,30.25,20.79C1053.95,291.33,1063.54,298.89,1072.72,307z"/>
	</g>
	<g>
		<path class="st1" d="M444.83,377.19c4.12-3.72,8.14-7.04,12.3-10.41c4.11-3.28,8.17-6.47,12.4-9.57
			c8.34-6.16,16.75-12.04,25.42-17.57c8.67-5.53,17.38-10.92,26.39-15.83c8.97-5.03,18.05-9.67,27.31-14.21
			c36.98-17.64,76.43-30.71,116.99-37.7c20.26-3.56,40.83-5.62,61.44-6.09c20.56-0.38,41.22,0.74,61.6,3.4l7.6,1.06l3.82,0.59
			l1.89,0.23l1.93,0.36l15.13,2.86c2.46,0.42,5.13,1.07,7.71,1.68s5.04,1.25,7.57,1.94c4.99,1.33,9.93,2.76,14.88,4.18
			c9.79,3.02,19.45,6.29,28.91,9.92c9.47,3.62,18.88,7.56,28.11,11.83l3.48,1.64l3.48,1.64l7.08,2.85l6.69,3.59l3.39,1.82l3.39,1.82
			l6.69,3.59c2.05,1.6,4.13,2.94,6.34,4.24c2.21,1.3,4.34,2.55,6.55,3.85l6.46,4.02c17.11,10.86,33.61,22.84,49.11,36.08
			c15.5,13.24,29.99,27.5,43.36,42.84c13.36,15.34,25.46,31.78,36.3,48.9c1.31,2.15,2.74,4.27,4.05,6.42l3.82,6.64l3.82,6.64
			c1.26,2.24,2.38,4.52,3.56,6.72l3.56,6.72l1.75,3.4c0.29,0.49,0.58,1.21,0.92,1.83l0.83,1.79c2.24,4.78,4.18,9.51,6.03,14.2
			c3.79,9.41,7.09,18.9,10.21,28.52c3.03,9.57,5.8,19.22,8.16,28.99c4.91,19.41,8.4,39.19,10.78,59.15
			c2.38,19.96,3.48,40.01,3.17,59.99c-0.67,40.03-6.85,80.12-19.14,118.27c-6.11,19.1-22.24,55.64-22.24,55.64l-7.08,13.2
			c0,0-4.97,8.63-7.43,13.02l-1.86,3.25l-2.03,3.16l-3.98,6.37c-2.59,4.2-5.49,8.35-8.34,12.42
			c-11.36,16.39-23.89,31.82-37.41,46.38l-2.51,2.79l-2.63,2.61l-5.23,5.36c-1.73,1.76-3.54,3.47-5.35,5.18
			c-1.81,1.71-3.54,3.47-5.44,5.14l-5.48,5l-5.65,4.91c-3.75,3.24-7.59,6.44-11.56,9.46c-7.76,6.13-15.96,12.02-24.23,17.43
			c-8.27,5.41-16.76,10.59-25.45,15.32c-17.34,9.6-35.27,18-53.6,25.05c-18.46,7.1-37.33,12.86-56.55,17.21l-14.51,3.07
			c-4.83,0.88-9.71,1.62-14.58,2.36c-4.83,0.88-9.74,1.26-14.65,1.87l-7.39,0.85l-7.34,0.54c-19.67,1.42-39.38,1.25-58.92-0.28
			c-19.58-1.67-38.94-4.78-58.04-9.21c-19.1-4.43-37.81-10.22-56-17.18c-18.24-6.88-36-15.06-53.29-24.11
			c-8.65-4.53-17.11-9.4-25.43-14.32c-8.37-5.05-16.51-10.31-24.55-15.75c-16.05-10.96-31.5-22.83-46.08-35.68
			c14.95,12.38,30.76,23.77,47,34.16c8.14,5.26,16.47,10.18,24.89,14.92c8.47,4.65,16.93,9.31,25.77,13.49
			c17.35,8.53,35.22,16.1,53.43,22.4c18.21,6.3,36.89,11.51,55.79,15.28c18.85,3.85,38.01,6.3,57.12,7.38
			c19.16,0.99,38.4,0.57,57.46-1.39l7.16-0.63l7.13-0.99c4.74-0.7,9.52-1.27,14.18-2.24c4.75-0.92,9.44-1.76,14.1-2.73l13.9-3.39
			c18.49-4.85,36.66-10.99,54.25-18.33c17.59-7.35,34.64-15.98,51.06-25.75c8.16-4.79,16.21-9.99,23.95-15.45
			c7.83-5.42,15.27-11.16,22.55-17.21c3.66-3.07,7.23-6.19,10.72-9.35l5.25-4.79l5.13-4.97c1.77-1.63,3.36-3.34,5.04-5.02
			c1.68-1.67,3.36-3.34,4.95-5.06l4.83-5.24l2.41-2.62l2.33-2.67c12.54-14.19,24.04-29.39,34.33-45.23
			c2.58-3.98,5.26-7.92,7.58-12.04l3.62-6.11l1.94-2.99l1.68-3.13l6.71-12.51l6.05-12.75c7.77-17.2,14.45-34.87,19.65-52.89
			c10.52-36.08,15.22-73.83,14.75-111.34c-0.21-18.79-1.79-37.54-4.56-56.14s-6.65-37.02-11.74-55.07
			c-2.52-9.07-5.35-17.97-8.45-26.79c-3.1-8.82-6.46-17.56-10.19-26.05c-1.86-4.24-3.73-8.49-5.73-12.47l-0.75-1.52
			c-0.21-0.45-0.42-0.89-0.71-1.39l-1.72-3.05l-3.44-6.1c-1.18-1.97-2.18-4.08-3.44-6.1l-3.67-5.88l-3.67-5.88
			c-1.18-1.97-2.62-3.87-3.85-5.76c-10.32-15.38-21.85-29.96-34.34-43.59c-12.53-13.55-26.11-26.2-40.59-37.77
			c-14.35-11.62-29.75-22.11-45.62-31.52l-5.94-3.52c-1.95-1.16-4.04-2.28-6.03-3.35s-4.04-2.28-6.01-3.39l-6.08-3.26l-3.2-1.33
			l-3.13-1.46l-6.22-3l-6.31-2.83l-3.13-1.46l-3.18-1.37c-8.54-3.69-17.18-6.98-25.87-9.96c-8.73-3.12-17.56-5.84-26.36-8.21
			c-4.42-1.14-8.84-2.28-13.31-3.34c-2.19-0.5-4.38-1.01-6.62-1.43c-2.24-0.42-4.34-0.87-6.63-1.2l-13.61-2.16l-1.67-0.22
			l-1.72-0.14l-3.39-0.36l-6.86-0.77c-18.16-1.8-36.45-2.33-54.74-1.4c-18.2,0.98-36.35,3.32-54.18,6.96
			c-35.8,7.31-70.43,19.94-102.98,36.6c-8.11,4.27-16.17,8.66-23.98,13.42c-7.9,4.71-15.58,9.65-23.05,14.82
			c-7.56,5.12-14.86,10.6-21.99,16.17c-3.52,2.81-7.09,5.71-10.44,8.61s-6.74,5.89-9.73,8.76l0,0
			c-10.97,10.45-28.34,10.08-38.79-0.89c-10.45-10.97-10.08-28.34,0.89-38.79C444.38,377.61,444.65,377.31,444.83,377.19z"/>
	</g>
	<path class="st2" d="M275.07,1120.72"/>
	<path class="st2" d="M431.71,956.78"/>
</g>
</svg>
