<?xml version="1.0" encoding="UTF-8"?>
<svg xmlns="http://www.w3.org/2000/svg" xmlns:xlink="http://www.w3.org/1999/xlink" width="75pt" height="59pt" viewBox="0 0 75 59" version="1.1">
<g id="surface1">
<path style=" stroke:none;fill-rule:evenodd;fill:rgb(26.699829%,28.199768%,27.799988%);fill-opacity:1;" d="M 35.113281 38.597656 L 35.113281 35.734375 L 36.019531 35.734375 C 36.292969 35.734375 36.511719 35.808594 36.675781 35.957031 C 36.835938 36.101563 36.917969 36.300781 36.917969 36.550781 C 36.917969 36.714844 36.875 36.863281 36.792969 36.992188 C 36.710938 37.121094 36.59375 37.214844 36.453125 37.273438 C 36.304688 37.328125 36.097656 37.359375 35.828125 37.359375 L 35.523438 37.359375 L 35.523438 38.597656 Z M 35.949219 36.097656 L 35.523438 36.097656 L 35.523438 36.992188 L 35.972656 36.992188 C 36.140625 36.992188 36.269531 36.953125 36.359375 36.875 C 36.449219 36.796875 36.492188 36.683594 36.492188 36.539063 C 36.492188 36.246094 36.3125 36.097656 35.949219 36.097656 Z M 38.019531 36.707031 C 38.308594 36.707031 38.546875 36.800781 38.734375 36.984375 C 38.925781 37.171875 39.019531 37.402344 39.019531 37.683594 C 39.019531 37.957031 38.921875 38.179688 38.730469 38.359375 C 38.539063 38.539063 38.296875 38.628906 38.003906 38.628906 C 37.722656 38.628906 37.484375 38.539063 37.292969 38.355469 C 37.105469 38.171875 37.011719 37.945313 37.011719 37.671875 C 37.011719 37.398438 37.105469 37.167969 37.296875 36.984375 C 37.488281 36.800781 37.730469 36.707031 38.019531 36.707031 Z M 38 37.042969 C 37.820313 37.042969 37.675781 37.101563 37.558594 37.21875 C 37.445313 37.335938 37.386719 37.488281 37.386719 37.667969 C 37.386719 37.847656 37.445313 37.996094 37.5625 38.109375 C 37.679688 38.222656 37.832031 38.28125 38.015625 38.28125 C 38.199219 38.28125 38.351563 38.222656 38.46875 38.109375 C 38.585938 37.992188 38.644531 37.84375 38.644531 37.664063 C 38.644531 37.484375 38.582031 37.335938 38.460938 37.21875 C 38.339844 37.101563 38.183594 37.042969 38 37.042969 Z M 41.746094 36.710938 L 42.144531 36.710938 L 41.316406 38.628906 L 41.191406 38.628906 L 40.636719 37.316406 L 40.085938 38.628906 L 39.960938 38.628906 L 39.128906 36.710938 L 39.53125 36.710938 L 40.019531 37.855469 L 40.5 36.710938 L 40.777344 36.710938 L 41.253906 37.855469 Z M 43.933594 37.679688 L 42.609375 37.679688 C 42.617188 37.863281 42.675781 38.007813 42.789063 38.117188 C 42.902344 38.222656 43.042969 38.277344 43.21875 38.277344 C 43.464844 38.277344 43.691406 38.203125 43.898438 38.050781 L 43.898438 38.414063 C 43.785156 38.488281 43.671875 38.542969 43.558594 38.578125 C 43.445313 38.609375 43.3125 38.625 43.164063 38.625 C 42.953125 38.625 42.785156 38.582031 42.65625 38.496094 C 42.53125 38.410156 42.425781 38.292969 42.351563 38.148438 C 42.273438 38.003906 42.234375 37.832031 42.234375 37.640625 C 42.234375 37.355469 42.316406 37.121094 42.476563 36.941406 C 42.640625 36.761719 42.851563 36.671875 43.113281 36.671875 C 43.363281 36.671875 43.5625 36.757813 43.710938 36.933594 C 43.859375 37.105469 43.933594 37.339844 43.933594 37.636719 Z M 42.617188 37.460938 L 43.566406 37.460938 C 43.554688 37.308594 43.511719 37.195313 43.429688 37.113281 C 43.351563 37.035156 43.246094 36.992188 43.113281 36.992188 C 42.976563 36.992188 42.867188 37.035156 42.785156 37.113281 C 42.699219 37.195313 42.640625 37.308594 42.617188 37.460938 Z M 44.734375 36.710938 L 44.734375 37.140625 L 44.753906 37.105469 C 44.9375 36.816406 45.117188 36.671875 45.296875 36.671875 C 45.4375 36.671875 45.585938 36.742188 45.738281 36.882813 L 45.539063 37.210938 C 45.410156 37.089844 45.289063 37.027344 45.179688 37.027344 C 45.058594 37.027344 44.957031 37.085938 44.867188 37.199219 C 44.78125 37.316406 44.734375 37.449219 44.734375 37.609375 L 44.734375 38.597656 L 44.363281 38.597656 L 44.363281 36.710938 Z M 46.445313 35.734375 L 48.839844 35.734375 L 48.839844 36.097656 L 47.839844 36.097656 L 47.839844 38.597656 L 47.429688 38.597656 L 47.429688 36.097656 L 46.445313 36.097656 Z M 49.445313 36.707031 C 49.734375 36.707031 49.96875 36.800781 50.160156 36.984375 C 50.351563 37.171875 50.445313 37.402344 50.445313 37.683594 C 50.445313 37.957031 50.347656 38.179688 50.15625 38.359375 C 49.964844 38.539063 49.722656 38.628906 49.429688 38.628906 C 49.148438 38.628906 48.910156 38.539063 48.71875 38.355469 C 48.53125 38.171875 48.433594 37.945313 48.433594 37.671875 C 48.433594 37.398438 48.53125 37.167969 48.722656 36.984375 C 48.914063 36.800781 49.15625 36.707031 49.445313 36.707031 Z M 49.425781 37.042969 C 49.246094 37.042969 49.101563 37.101563 48.984375 37.21875 C 48.871094 37.335938 48.8125 37.488281 48.8125 37.667969 C 48.8125 37.847656 48.871094 37.996094 48.988281 38.109375 C 49.105469 38.222656 49.257813 38.28125 49.441406 38.28125 C 49.625 38.28125 49.777344 38.222656 49.890625 38.109375 C 50.007813 37.992188 50.066406 37.84375 50.066406 37.664063 C 50.066406 37.484375 50.007813 37.335938 49.886719 37.21875 C 49.765625 37.101563 49.609375 37.042969 49.425781 37.042969 Z M 52.078125 35.734375 L 53.699219 35.734375 L 53.699219 36.097656 L 52.488281 36.097656 L 52.488281 36.972656 L 53.65625 36.972656 L 53.65625 37.335938 L 52.488281 37.335938 L 52.488281 38.230469 L 53.738281 38.230469 L 53.738281 38.597656 L 52.078125 38.597656 Z M 55.667969 37.226563 L 55.667969 38.597656 L 55.292969 38.597656 L 55.292969 37.542969 C 55.292969 37.335938 55.265625 37.1875 55.210938 37.105469 C 55.15625 37.023438 55.054688 36.980469 54.917969 36.980469 C 54.839844 36.980469 54.769531 37 54.703125 37.035156 C 54.636719 37.070313 54.5625 37.136719 54.480469 37.226563 L 54.480469 38.597656 L 54.105469 38.597656 L 54.105469 36.710938 L 54.480469 36.710938 L 54.480469 36.960938 C 54.667969 36.765625 54.855469 36.671875 55.039063 36.671875 C 55.277344 36.671875 55.460938 36.785156 55.59375 37.015625 C 55.792969 36.785156 56 36.671875 56.21875 36.671875 C 56.402344 36.671875 56.550781 36.738281 56.667969 36.871094 C 56.785156 37.003906 56.847656 37.210938 56.847656 37.484375 L 56.847656 38.597656 L 56.472656 38.597656 L 56.472656 37.476563 C 56.472656 37.320313 56.441406 37.199219 56.375 37.113281 C 56.3125 37.03125 56.21875 36.988281 56.097656 36.988281 C 55.945313 36.988281 55.800781 37.070313 55.667969 37.226563 Z M 57.332031 39.5625 L 57.332031 36.710938 L 57.984375 36.710938 C 58.320313 36.710938 58.582031 36.796875 58.765625 36.960938 C 58.953125 37.128906 59.042969 37.363281 59.042969 37.660156 C 59.042969 37.945313 58.957031 38.175781 58.78125 38.355469 C 58.605469 38.539063 58.382813 38.628906 58.113281 38.628906 C 57.992188 38.628906 57.859375 38.601563 57.714844 38.550781 L 57.714844 39.5625 Z M 57.976563 37.058594 L 57.714844 37.058594 L 57.714844 38.21875 C 57.828125 38.277344 57.949219 38.304688 58.074219 38.304688 C 58.246094 38.304688 58.390625 38.246094 58.5 38.125 C 58.613281 38.003906 58.667969 37.847656 58.667969 37.65625 C 58.667969 37.53125 58.640625 37.425781 58.589844 37.332031 C 58.535156 37.238281 58.464844 37.167969 58.375 37.125 C 58.285156 37.082031 58.152344 37.058594 57.976563 37.058594 Z M 60.355469 36.707031 C 60.644531 36.707031 60.882813 36.800781 61.074219 36.984375 C 61.261719 37.171875 61.355469 37.402344 61.355469 37.683594 C 61.355469 37.957031 61.261719 38.179688 61.070313 38.359375 C 60.875 38.539063 60.632813 38.628906 60.339844 38.628906 C 60.058594 38.628906 59.824219 38.539063 59.632813 38.355469 C 59.441406 38.171875 59.347656 37.945313 59.347656 37.671875 C 59.347656 37.398438 59.441406 37.167969 59.636719 36.984375 C 59.828125 36.800781 60.066406 36.707031 60.355469 36.707031 Z M 60.335938 37.042969 C 60.15625 37.042969 60.011719 37.101563 59.898438 37.21875 C 59.78125 37.335938 59.722656 37.488281 59.722656 37.667969 C 59.722656 37.847656 59.785156 37.996094 59.902344 38.109375 C 60.019531 38.222656 60.167969 38.28125 60.355469 38.28125 C 60.535156 38.28125 60.6875 38.222656 60.804688 38.109375 C 60.921875 37.992188 60.980469 37.84375 60.980469 37.664063 C 60.980469 37.484375 60.917969 37.335938 60.796875 37.21875 C 60.675781 37.101563 60.523438 37.042969 60.335938 37.042969 Z M 64.082031 36.710938 L 64.480469 36.710938 L 63.652344 38.628906 L 63.53125 38.628906 L 62.972656 37.316406 L 62.421875 38.628906 L 62.300781 38.628906 L 61.464844 36.710938 L 61.867188 36.710938 L 62.355469 37.855469 L 62.835938 36.710938 L 63.117188 36.710938 L 63.589844 37.855469 Z M 66.269531 37.679688 L 64.945313 37.679688 C 64.953125 37.863281 65.015625 38.007813 65.125 38.117188 C 65.238281 38.222656 65.382813 38.277344 65.558594 38.277344 C 65.800781 38.277344 66.03125 38.203125 66.238281 38.050781 L 66.238281 38.414063 C 66.121094 38.488281 66.007813 38.542969 65.894531 38.578125 C 65.78125 38.609375 65.652344 38.625 65.5 38.625 C 65.292969 38.625 65.125 38.582031 64.996094 38.496094 C 64.867188 38.410156 64.765625 38.292969 64.6875 38.148438 C 64.609375 38.003906 64.570313 37.832031 64.570313 37.640625 C 64.570313 37.355469 64.652344 37.121094 64.816406 36.941406 C 64.976563 36.761719 65.1875 36.671875 65.449219 36.671875 C 65.699219 36.671875 65.898438 36.757813 66.046875 36.933594 C 66.195313 37.105469 66.269531 37.339844 66.269531 37.636719 Z M 64.953125 37.460938 L 65.902344 37.460938 C 65.890625 37.308594 65.847656 37.195313 65.769531 37.113281 C 65.6875 37.035156 65.582031 36.992188 65.449219 36.992188 C 65.316406 36.992188 65.207031 37.035156 65.121094 37.113281 C 65.035156 37.195313 64.980469 37.308594 64.953125 37.460938 Z M 67.070313 36.710938 L 67.070313 37.140625 L 67.09375 37.105469 C 67.273438 36.816406 67.453125 36.671875 67.632813 36.671875 C 67.773438 36.671875 67.921875 36.742188 68.074219 36.882813 L 67.878906 37.210938 C 67.746094 37.089844 67.628906 37.027344 67.515625 37.027344 C 67.398438 37.027344 67.292969 37.085938 67.203125 37.199219 C 67.117188 37.316406 67.070313 37.449219 67.070313 37.609375 L 67.070313 38.597656 L 66.699219 38.597656 L 66.699219 36.710938 L 67.070313 36.710938 "/>
<path style=" stroke:none;fill-rule:evenodd;fill:rgb(90.99884%,37.998962%,12.5%);fill-opacity:1;" d="M 25.222656 37.59375 L 24.433594 38.964844 C 22.972656 41.382813 20.566406 44.03125 17.964844 45.261719 C 17.695313 45.390625 17.496094 45.484375 17.226563 45.59375 C 17.054688 45.664063 16.554688 45.84375 16.453125 45.917969 C 21.773438 44.828125 25.714844 42.453125 29.003906 38.476563 C 31.734375 35.179688 34.539063 29.828125 34.144531 23.773438 C 33.765625 17.96875 30.476563 13.59375 25.59375 12.367188 C 20.371094 11.050781 16.429688 13.398438 13.59375 17.164063 C 13.390625 17.433594 12.757813 18.347656 12.664063 18.644531 C 16.507813 16.71875 21.101563 15.867188 24.972656 18.679688 C 28.34375 21.128906 29.359375 26.058594 28.480469 30.359375 C 27.972656 32.855469 26.972656 34.753906 25.714844 36.839844 C 25.605469 37.015625 25.269531 37.457031 25.222656 37.59375 "/>
<path style=" stroke:none;fill-rule:evenodd;fill:rgb(0.799561%,59.599304%,26.699829%);fill-opacity:1;" d="M 11.746094 45.683594 C 11.390625 45.941406 9.984375 45.5 9.625 45.4375 C 10.320313 45.929688 11.761719 46.328125 12.804688 46.386719 C 14.398438 46.476563 15.097656 46.199219 16.453125 45.917969 C 16.554688 45.84375 17.054688 45.664063 17.226563 45.59375 C 17.496094 45.484375 17.695313 45.390625 17.964844 45.261719 C 20.566406 44.03125 22.972656 41.382813 24.433594 38.964844 L 25.222656 37.59375 C 25.3125 37.320313 25.515625 36.949219 25.644531 36.660156 C 26.6875 34.25 27.453125 31.523438 27.21875 28.84375 C 27.078125 27.234375 26.679688 25.808594 25.988281 24.636719 C 23.71875 20.804688 18.933594 19.382813 14.816406 21.203125 C 12.566406 22.195313 11.148438 23.8125 9.972656 25.832031 C 9.808594 26.113281 9.683594 26.4375 9.535156 26.671875 C 9.714844 26.644531 10.246094 26.308594 10.492188 26.195313 C 11.585938 25.679688 12.613281 25.300781 13.867188 25.09375 C 17.089844 24.566406 20.484375 25.609375 22.136719 28.382813 C 22.910156 29.683594 23.128906 31.554688 22.9375 33.335938 C 22.59375 36.507813 21.003906 39.820313 19.449219 41.695313 C 19.082031 42.140625 18.457031 42.859375 18.011719 43.234375 C 17.492188 43.679688 17.003906 44.085938 16.34375 44.492188 C 15.234375 45.175781 13 46.023438 11.746094 45.683594 "/>
<path style=" stroke:none;fill-rule:evenodd;fill:rgb(0%,35.699463%,63.499451%);fill-opacity:1;" d="M 9.625 45.4375 C 9.984375 45.5 11.390625 45.941406 11.746094 45.683594 C 11.140625 45.503906 10.8125 45.175781 10.574219 44.625 C 9.921875 43.109375 10.476563 40.332031 10.84375 38.832031 C 11.140625 37.628906 11.464844 36.515625 11.839844 35.355469 L 12.972656 32.042969 L 8.496094 32.054688 C 8.222656 32.480469 7.625 34.828125 7.460938 35.503906 C 6.707031 38.609375 5.894531 43.96875 9.625 45.4375 "/>
<path style=" stroke:none;fill-rule:evenodd;fill:rgb(0%,35.699463%,63.499451%);fill-opacity:1;" d="M 8.359375 29.089844 L 8.691406 29.453125 C 8.921875 29.25 9.148438 29.007813 9.515625 28.835938 C 10.296875 28.464844 11.132813 28.429688 11.929688 28.800781 C 12.105469 28.882813 12.242188 28.976563 12.390625 29.082031 C 12.574219 29.214844 12.632813 29.324219 12.804688 29.433594 L 13.140625 29.089844 C 12.972656 28.835938 12.527344 28.523438 12.167969 28.34375 C 11.261719 27.886719 10.25 27.925781 9.339844 28.339844 C 9.023438 28.480469 8.511719 28.851563 8.359375 29.089844 "/>
<path style=" stroke:none;fill-rule:evenodd;fill:rgb(0%,35.699463%,63.499451%);fill-opacity:1;" d="M 8.941406 29.71875 L 9.28125 30.101563 C 9.621094 29.917969 10.339844 29.089844 11.554688 29.652344 C 11.910156 29.816406 11.929688 29.878906 12.160156 30.097656 L 12.558594 29.652344 C 12.074219 29.308594 11.664063 28.890625 10.730469 28.898438 C 9.96875 28.90625 9.414063 29.21875 8.941406 29.71875 "/>
<path style=" stroke:none;fill-rule:evenodd;fill:rgb(0%,35.699463%,63.499451%);fill-opacity:1;" d="M 9.585938 30.367188 L 9.953125 30.65625 C 9.992188 30.632813 10.015625 30.613281 10.046875 30.589844 C 10.242188 30.449219 10.46875 30.347656 10.730469 30.34375 C 11.238281 30.332031 11.34375 30.554688 11.667969 30.714844 L 11.914063 30.367188 C 11.390625 29.71875 10.09375 29.660156 9.585938 30.367188 "/>
<path style=" stroke:none;fill-rule:evenodd;fill:rgb(0%,35.699463%,63.499451%);fill-opacity:1;" d="M 10.15625 30.957031 L 10.804688 31.609375 L 11.34375 30.984375 C 10.921875 30.585938 10.609375 30.621094 10.15625 30.957031 "/>
<path style=" stroke:none;fill-rule:evenodd;fill:rgb(26.699829%,28.199768%,27.799988%);fill-opacity:1;" d="M 37.066406 29.890625 C 39.425781 29.667969 38.65625 32.214844 37.617188 32.777344 C 37.132813 33.042969 36.636719 32.96875 36.03125 32.972656 Z M 34.890625 33.738281 C 35.628906 33.761719 37.21875 33.839844 37.792969 33.597656 C 39.476563 32.886719 39.964844 30.449219 39.117188 29.539063 C 38.566406 28.945313 37.230469 29.109375 36.417969 29.097656 L 34.890625 33.738281 "/>
<path style=" stroke:none;fill-rule:evenodd;fill:rgb(26.699829%,28.199768%,27.799988%);fill-opacity:1;" d="M 41.71875 34.085938 C 42.308594 33.90625 43.023438 34.535156 42.195313 34.699219 C 41.417969 34.851563 40.816406 34.363281 41.71875 34.085938 Z M 42.65625 31.3125 C 43.355469 31.078125 43.09375 32.183594 42.714844 32.34375 C 42.355469 32.5 42.152344 32.308594 42.226563 31.914063 C 42.289063 31.59375 42.402344 31.398438 42.65625 31.3125 Z M 41.757813 32.730469 C 41.460938 32.804688 41.261719 32.90625 41.164063 33.136719 C 41.015625 33.476563 41.140625 33.6875 41.355469 33.863281 C 40.578125 34.152344 40.335938 34.691406 40.691406 35.046875 C 41.25 35.613281 43.75 35.363281 43.332031 33.894531 C 43.136719 33.207031 42.105469 33.484375 41.925781 33.136719 C 42.09375 32.738281 42.488281 33.21875 43.3125 32.675781 C 43.683594 32.429688 43.855469 31.976563 43.855469 31.335938 L 44.296875 31.332031 L 44.484375 30.667969 C 43.4375 30.53125 41.910156 30.515625 41.535156 31.644531 C 41.472656 31.839844 41.441406 32.058594 41.488281 32.273438 C 41.511719 32.378906 41.53125 32.421875 41.585938 32.5 L 41.757813 32.730469 "/>
<path style=" stroke:none;fill-rule:evenodd;fill:rgb(26.699829%,28.199768%,27.799988%);fill-opacity:1;" d="M 61.539063 33.023438 C 60.269531 33.300781 60.496094 31.347656 62.089844 31.414063 C 62.015625 31.71875 61.679688 32.832031 61.539063 33.023438 Z M 62.367188 30.613281 C 61.203125 30.6875 60.269531 30.855469 59.925781 32.210938 C 59.523438 33.8125 60.929688 33.914063 62.167969 33.707031 L 63.683594 29.101563 L 62.867188 29.09375 L 62.367188 30.613281 "/>
<path style=" stroke:none;fill-rule:evenodd;fill:rgb(26.699829%,28.199768%,27.799988%);fill-opacity:1;" d="M 50.3125 31.378906 C 50.210938 31.777344 50.054688 32.183594 49.925781 32.589844 C 49.832031 32.890625 49.824219 32.90625 49.558594 33.019531 C 48.613281 33.433594 48.835938 32.351563 49.207031 31.867188 C 49.457031 31.542969 49.703125 31.332031 50.3125 31.378906 Z M 49.570313 33.511719 C 49.574219 33.519531 49.585938 33.539063 49.589844 33.589844 C 49.589844 33.621094 49.578125 33.6875 49.578125 33.753906 L 50.347656 33.75 L 51.371094 30.695313 C 50.65625 30.589844 50.109375 30.53125 49.449219 30.78125 C 47.523438 31.511719 47.5625 34.8125 49.570313 33.511719 "/>
<path style=" stroke:none;fill-rule:evenodd;fill:rgb(26.699829%,28.199768%,27.799988%);fill-opacity:1;" d="M 67.019531 31.375 C 66.9375 31.757813 66.753906 32.207031 66.632813 32.589844 C 66.449219 33.183594 65.828125 33.171875 65.695313 33.027344 C 65.414063 32.714844 65.761719 31.292969 67.019531 31.375 Z M 66.277344 33.511719 L 66.285156 33.75 L 67.046875 33.75 L 68.074219 30.714844 C 66.730469 30.332031 65.542969 30.886719 65.066406 31.710938 C 64.382813 32.890625 64.828125 34.492188 66.277344 33.511719 "/>
<path style=" stroke:none;fill-rule:evenodd;fill:rgb(26.699829%,28.199768%,27.799988%);fill-opacity:1;" d="M 56.226563 33.742188 L 57.035156 33.746094 L 57.5625 32.1875 C 57.585938 32.121094 57.601563 32.066406 57.617188 32.019531 C 57.695313 31.761719 57.671875 31.75 57.941406 31.554688 C 58.660156 31.03125 58.769531 31.351563 58.605469 31.886719 L 58.039063 33.75 L 58.804688 33.75 L 59.476563 31.773438 C 59.5 31.695313 59.511719 31.632813 59.523438 31.589844 C 59.613281 31.15625 59.570313 30.699219 59.148438 30.617188 C 58.671875 30.523438 58.285156 30.792969 57.972656 30.964844 L 58.054688 30.667969 L 57.253906 30.652344 L 56.226563 33.742188 "/>
<path style=" stroke:none;fill-rule:evenodd;fill:rgb(26.699829%,28.199768%,27.799988%);fill-opacity:1;" d="M 46.742188 30.648438 L 46.1875 30.65625 L 45.9375 31.332031 L 46.476563 31.335938 C 46.386719 31.832031 44.90625 34.484375 47.390625 33.617188 L 47.542969 32.824219 C 47.417969 32.863281 47.179688 32.984375 47.070313 32.972656 C 46.523438 32.929688 47.199219 31.644531 47.300781 31.347656 L 47.929688 31.335938 L 48.152344 30.65625 L 47.570313 30.65625 L 47.792969 30.015625 L 46.964844 30 L 46.742188 30.648438 "/>
<path style=" stroke:none;fill-rule:evenodd;fill:rgb(26.699829%,28.199768%,27.799988%);fill-opacity:1;" d="M 54.480469 33.734375 L 55.34375 33.75 L 56.898438 29.101563 L 56.019531 29.101563 L 54.480469 33.734375 "/>
<path style=" stroke:none;fill-rule:evenodd;fill:rgb(26.699829%,28.199768%,27.799988%);fill-opacity:1;" d="M 51.132813 33.734375 L 51.9375 33.75 L 53.484375 29.101563 L 52.664063 29.101563 L 51.132813 33.734375 "/>
<path style=" stroke:none;fill-rule:evenodd;fill:rgb(26.699829%,28.199768%,27.799988%);fill-opacity:1;" d="M 39.398438 33.773438 L 40.222656 33.773438 L 41.207031 30.644531 L 40.386719 30.644531 Z M 41.203125 29.363281 C 41.425781 29.363281 41.5625 29.578125 41.503906 29.839844 C 41.441406 30.105469 41.210938 30.320313 40.984375 30.320313 C 40.757813 30.320313 40.621094 30.105469 40.683594 29.839844 C 40.742188 29.578125 40.972656 29.363281 41.203125 29.363281 "/>
<path style=" stroke:none;fill-rule:evenodd;fill:rgb(26.699829%,28.199768%,27.799988%);fill-opacity:1;" d="M 43.925781 33.773438 L 44.746094 33.773438 L 45.734375 30.644531 L 44.914063 30.644531 Z M 45.726563 29.363281 C 45.953125 29.363281 46.089844 29.578125 46.027344 29.839844 C 45.96875 30.105469 45.738281 30.320313 45.511719 30.320313 C 45.285156 30.320313 45.148438 30.105469 45.207031 29.839844 C 45.269531 29.578125 45.5 29.363281 45.726563 29.363281 "/>
<path style=" stroke:none;fill-rule:evenodd;fill:rgb(26.699829%,28.199768%,27.799988%);fill-opacity:1;" d="M 62.855469 33.773438 L 63.679688 33.773438 L 64.664063 30.644531 L 63.84375 30.644531 Z M 64.65625 29.363281 C 64.886719 29.363281 65.019531 29.578125 64.960938 29.839844 C 64.898438 30.105469 64.667969 30.320313 64.441406 30.320313 C 64.214844 30.320313 64.078125 30.105469 64.140625 29.839844 C 64.199219 29.578125 64.429688 29.363281 64.65625 29.363281 "/>
<path style=" stroke:none;fill-rule:evenodd;fill:rgb(26.699829%,28.199768%,27.799988%);fill-opacity:1;" d="M 67.726563 34.230469 L 43.898438 34.230469 L 43.898438 34.542969 L 67.726563 34.542969 L 67.726563 34.230469 "/>
<path style=" stroke:none;fill-rule:evenodd;fill:rgb(26.699829%,28.199768%,27.799988%);fill-opacity:1;" d="M 39.597656 34.230469 L 34.730469 34.230469 L 34.730469 34.542969 L 39.597656 34.542969 L 39.597656 34.230469 "/>
</g>
</svg>
