<?xml version="1.0" encoding="utf-8"?>
<!-- Generator: Adobe Illustrator 25.2.1, SVG Export Plug-In . SVG Version: 6.00 Build 0)  -->
<svg version="1.1"
	 id="svg5355" xmlns:cc="http://creativecommons.org/ns#" xmlns:dc="http://purl.org/dc/elements/1.1/" xmlns:inkscape="http://www.inkscape.org/namespaces/inkscape" xmlns:rdf="http://www.w3.org/1999/02/22-rdf-syntax-ns#" xmlns:sodipodi="http://sodipodi.sourceforge.net/DTD/sodipodi-0.dtd" xmlns:svg="http://www.w3.org/2000/svg"
	 xmlns="http://www.w3.org/2000/svg" xmlns:xlink="http://www.w3.org/1999/xlink" x="0px" y="0px" viewBox="0 0 300 70"
	 style="enable-background:new 0 0 300 70;" xml:space="preserve">
<style type="text/css">
	.st0{fill:#4C76C4;}
	.st1{fill:#FFFFFF;}
	.st2{fill:#F4FFF6;}
</style>
<defs>
	
		<inkscape:perspective  id="perspective5363" inkscape:persp3d-origin="372.04724 : 350.78739 : 1" inkscape:vp_x="0 : 526.18109 : 1" inkscape:vp_y="0 : 1000 : 0" inkscape:vp_z="744.09448 : 526.18109 : 1" sodipodi:type="inkscape:persp3d">
		</inkscape:perspective>
	
		<inkscape:perspective  id="perspective5296" inkscape:persp3d-origin="0.5 : 0.33333333 : 1" inkscape:vp_x="0 : 0.5 : 1" inkscape:vp_y="0 : 1000 : 0" inkscape:vp_z="1 : 0.5 : 1" sodipodi:type="inkscape:persp3d">
		</inkscape:perspective>
</defs>
<sodipodi:namedview  bordercolor="#666666" borderopacity="1.0" id="base" inkscape:current-layer="layer1" inkscape:cx="205.92924" inkscape:cy="28.779644" inkscape:document-units="px" inkscape:pageopacity="0.0" inkscape:pageshadow="2" inkscape:window-height="750" inkscape:window-maximized="1" inkscape:window-width="1280" inkscape:window-x="-8" inkscape:window-y="-8" inkscape:zoom="2.8" pagecolor="#ffffff" showgrid="false">
	</sodipodi:namedview>
<g id="layer1" transform="translate(-106.94611,-316.33187)" inkscape:groupmode="layer" inkscape:label="Layer 1">
	<g id="g5585" transform="matrix(0.99745694,0,0,0.99745694,1.7440349,-0.26157405)">
		<g id="g2382" transform="matrix(3.8400969,0,0,-3.8400969,404.92684,379.53106)">
			<path id="path2384" class="st0" d="M0,0c0-1-0.8-1.8-1.8-1.8h-30.6c-1,0-1.8,0.8-1.8,1.8v14.1c0,1,0.8,1.8,1.8,1.8h30.6
				c1,0,1.8-0.8,1.8-1.8V0z"/>
		</g>
		<g id="g2386" transform="matrix(3.8400969,0,0,-3.8400969,395.86272,376.54962)">
			<path id="path2388" class="st1" d="M0,0v-0.4c-0.4-0.1-0.9-0.1-1.3-0.1c-1,0-2,0.2-2.8,0.5H0z M0,1V0.5h-5.3
				C-5.6,0.7-5.8,0.9-6,1H0z M0,2.3V1.6h-6.7C-6.9,1.8-7.1,2-7.3,2.3H0z M0,3.8v-1h-7.7c-0.2,0.3-0.4,0.6-0.5,1H0z M-3.8,5.9
				c0.1-0.6,0.5-1.2,1-1.5h-5.6c-0.2,0.5-0.2,1-0.3,1.5C-8.7,5.9-3.8,5.9-3.8,5.9z M-2.9,8.3c-0.6-0.4-1-1.1-1-1.9h-4.9
				c0,0.7,0.2,1.3,0.4,1.9H-2.9z M-1.3,12.8c0.4,0,0.9,0,1.3-0.1V8.9h-1.3h-6.7C-6.9,11.2-4.3,12.8-1.3,12.8 M-14.1,12.6h4.8V8.9
				h-4.8V12.6z M-14.1,8.3h4.8V6.4h-4.8V8.3z M-14.1,5.9h4.8V4.3h-4.8V5.9z M-14.1,3.8h4.8v-1h-4.8V3.8z M-14.1,2.3h4.8V1.6h-4.8
				V2.3z M-14.1,1h4.8V0.5h-4.8V1z M-14.1,0h4.8v-0.2h-4.8V0z M-15,0v-0.2h-5.1L-20.2,0C-20.2,0-15,0-15,0z M-15,1V0.5h-5.6L-20.9,1
				C-20.9,1-15,1-15,1z M-15,2.3V1.6h-6.4l-0.5,0.7C-21.8,2.3-15,2.3-15,2.3z M-15,3.8v-1h-7.2l-0.7,1H-15z M-19.6,8.9l0,3.7
				l4.6-0.1V8.9H-19.6z M-28.9,8.9v3.7h5.3l2.5-3.7H-28.9z M-28.9,6.4v1.9h8.2l1.1-1.7l0,1.7h4.6V6.4H-28.9z M-28.9,4.3v1.5H-15V4.3
				h-8.3l-1,1.4l0-1.4H-28.9z M-28.9,2.8v1h4.7l0-1H-28.9z M-28.9,1.6v0.7h4.8l0-0.7C-24.1,1.6-28.9,1.6-28.9,1.6z M-28.9,0.5V1h4.8
				l0-0.5C-24.1,0.5-28.9,0.5-28.9,0.5z M-28.9-0.2V0h4.8l0-0.2H-28.9z"/>
		</g>
		<g id="g2390" transform="matrix(3.8400969,0,0,-3.8400969,146.34282,341.20117)">
			<path id="path2392" class="st2" d="M0,0v4h1.1L2,2.5c0.3-0.4,0.5-0.9,0.7-1.4h0C2.7,1.7,2.7,2.2,2.7,2.8V4h0.9V0h-1L1.6,1.5
				C1.4,2,1.1,2.5,0.9,2.9h0c0-0.5,0-1.1,0-1.7V0H0z"/>
		</g>
		<g id="g2394" transform="matrix(3.8400969,0,0,-3.8400969,172.02347,334.67607)">
			<path id="path2396" class="st2" d="M0,0l-0.3,0.8c-0.1,0.2-0.2,0.5-0.2,0.8h0c-0.1-0.2-0.1-0.5-0.2-0.8L-1,0H0z M-1.1-0.7l-0.3-1
				h-1l1.3,4h1.3l1.3-4H0.5l-0.3,1C0.1-0.7-1.1-0.7-1.1-0.7z"/>
		</g>
		<g id="g2398" transform="matrix(3.8400969,0,0,-3.8400969,181.89747,328.79228)">
			<path id="path2400" class="st2" d="M0,0h-1.2v0.8h3.3V0H1v-3.2H0V0z"/>
		</g>
		<path id="path2402" class="st2" d="M196.5,341.2h-3.7v-15.3h3.7V341.2z"/>
		<g id="g2404" transform="matrix(3.8400969,0,0,-3.8400969,203.61406,333.56246)">
			<path id="path2406" class="st2" d="M0,0c0-0.8,0.4-1.3,1.1-1.3c0.7,0,1,0.6,1,1.4c0,0.7-0.4,1.3-1,1.3C0.4,1.4,0,0.8,0,0 M3.1,0
				c0-1.3-0.9-2.1-2.1-2.1c-1.3,0-2,0.9-2,2c0,1.2,0.8,2.1,2.1,2.1C2.4,2.1,3.1,1.2,3.1,0"/>
		</g>
		<g id="g2408" transform="matrix(3.8400969,0,0,-3.8400969,218.68214,341.20117)">
			<path id="path2410" class="st2" d="M0,0v4h1.1L2,2.5c0.3-0.4,0.5-0.9,0.7-1.4h0C2.7,1.7,2.7,2.2,2.7,2.8V4h0.9V0h-1L1.6,1.5
				C1.4,2,1.1,2.5,0.9,2.9h0c0-0.5,0-1.1,0-1.7V0H0z"/>
		</g>
		<g id="g2412" transform="matrix(3.8400969,0,0,-3.8400969,244.35899,334.67607)">
			<path id="path2414" class="st2" d="M0,0l-0.3,0.8c-0.1,0.2-0.2,0.5-0.2,0.8h0c-0.1-0.2-0.1-0.5-0.2-0.8L-1,0H0z M-1.1-0.7l-0.3-1
				h-1l1.3,4h1.3l1.3-4H0.5l-0.3,1C0.1-0.7-1.1-0.7-1.1-0.7z"/>
		</g>
		<g id="g2416" transform="matrix(3.8400969,0,0,-3.8400969,253.07793,325.88227)">
			<path id="path2418" class="st2" d="M0,0h1v-3.2h1.7V-4L0-4V0z"/>
		</g>
		<path id="path2420" class="st2" d="M110.7,359.4h-3.7v-15.3h3.7V359.4z"/>
		<g id="g2422" transform="matrix(3.8400969,0,0,-3.8400969,114.56068,359.39669)">
			<path id="path2424" class="st2" d="M0,0v4h1.1L2,2.5c0.3-0.4,0.5-0.9,0.7-1.4h0C2.7,1.7,2.7,2.2,2.7,2.8V4h0.9V0h-1L1.6,1.5
				C1.4,2,1.1,2.5,0.9,2.9h0c0-0.5,0-1.1,0-1.7V0H0z"/>
		</g>
		<g id="g2426" transform="matrix(3.8400969,0,0,-3.8400969,132.1863,344.07779)">
			<path id="path2428" class="st2" d="M0,0h2.6v-0.7H1v-0.9h1.6v-0.7H1V-4L0-4V0z"/>
		</g>
		<g id="g2430" transform="matrix(3.8400969,0,0,-3.8400969,148.95297,351.75798)">
			<path id="path2432" class="st2" d="M0,0c0-0.8,0.4-1.3,1.1-1.3c0.7,0,1,0.6,1,1.4c0,0.7-0.4,1.3-1,1.3C0.4,1.4,0,0.8,0,0 M3.1,0
				c0-1.3-0.9-2.1-2.1-2.1c-1.3,0-2,0.9-2,2c0,1.2,0.8,2.1,2.1,2.1C2.4,2.1,3.1,1.2,3.1,0"/>
		</g>
		<g id="g2434" transform="matrix(3.8400969,0,0,-3.8400969,167.73711,350.87284)">
			<path id="path2436" class="st2" d="M0,0h0.4c0.5,0,0.8,0.2,0.8,0.6c0,0.4-0.3,0.5-0.7,0.5c-0.2,0-0.4,0-0.4,0V0z M-1,1.7
				c0.3,0,0.8,0.1,1.3,0.1c0.6,0,1.1-0.1,1.4-0.3C2,1.3,2.1,1,2.1,0.6c0-0.5-0.4-0.9-0.8-1v0c0.3-0.1,0.5-0.4,0.6-0.7
				c0.1-0.5,0.3-1,0.3-1.1h-1C1.2-2.1,1.1-1.8,1-1.3C0.9-0.8,0.7-0.7,0.3-0.6H0v-1.6h-1C-1-2.2-1,1.7-1,1.7z"/>
		</g>
		<g id="g2438" transform="matrix(3.8400969,0,0,-3.8400969,193.26377,353.52785)">
			<path id="path2440" class="st2" d="M0,0c0,0.5,0,1.1,0,1.6h0c-0.1-0.5-0.3-1.1-0.5-1.5l-0.5-1.6h-0.8l-0.5,1.5
				c-0.1,0.5-0.3,1-0.4,1.6h0c0-0.5,0-1.2-0.1-1.7l-0.1-1.5h-0.9l0.3,4h1.3l0.4-1.3c0.1-0.5,0.3-1,0.4-1.4h0c0.1,0.5,0.3,1,0.4,1.4
				l0.5,1.3h1.3l0.2-4H0.1L0,0z"/>
		</g>
		<g id="g2442" transform="matrix(3.8400969,0,0,-3.8400969,208.6841,352.87545)">
			<path id="path2444" class="st2" d="M0,0l-0.3,0.8c-0.1,0.2-0.2,0.5-0.2,0.8h0c-0.1-0.2-0.1-0.5-0.2-0.8L-1,0H0z M-1.1-0.7l-0.3-1
				h-1l1.3,4h1.3l1.3-4H0.5l-0.3,1C0.1-0.7-1.1-0.7-1.1-0.7z"/>
		</g>
		<g id="g2446" transform="matrix(3.8400969,0,0,-3.8400969,218.55473,346.98399)">
			<path id="path2448" class="st2" d="M0,0h-1.2v0.8h3.3V0H1v-3.2H0V0z"/>
		</g>
		<path id="path2450" class="st2" d="M233.2,359.4h-3.7v-15.3h3.7V359.4z"/>
		<g id="g2452" transform="matrix(3.8400969,0,0,-3.8400969,249.23783,358.9881)">
			<path id="path2454" class="st2" d="M0,0c-0.2-0.1-0.6-0.2-1.1-0.2c-1.5,0-2.3,0.9-2.3,2c0,1.4,1.1,2.1,2.4,2.1
				c0.5,0,0.9-0.1,1.1-0.2l-0.2-0.7C-0.3,3.1-0.6,3.2-1,3.2c-0.8,0-1.4-0.4-1.4-1.3c0-0.8,0.5-1.3,1.4-1.3c0.3,0,0.6,0.1,0.8,0.1
				L0,0z"/>
		</g>
		<g id="g2456" transform="matrix(3.8400969,0,0,-3.8400969,252.46271,355.82654)">
			<path id="path2458" class="st2" d="M0,0c0.3-0.1,0.7-0.2,1.1-0.2c0.4,0,0.7,0.2,0.7,0.4c0,0.2-0.2,0.4-0.7,0.6
				C0.3,1-0.1,1.3-0.1,1.9c0,0.7,0.6,1.2,1.6,1.2C2,3.1,2.3,3,2.6,2.9L2.4,2.2C2.2,2.3,1.9,2.4,1.5,2.4C1.1,2.4,0.8,2.2,0.8,2
				c0-0.3,0.2-0.4,0.8-0.6c0.8-0.3,1.1-0.6,1.1-1.2C2.8-0.4,2.2-1,1-1C0.5-1,0-0.9-0.2-0.7L0,0z"/>
		</g>
		<g id="g2460" transform="matrix(3.8400969,0,0,-3.8400969,188.68484,377.18327)">
			<path id="path2462" class="st2" d="M0,0c-0.2-0.1-0.6-0.2-1.1-0.2c-1.5,0-2.3,0.9-2.3,2c0,1.4,1,2.1,2.4,2.1
				c0.5,0,0.9-0.1,1.1-0.2l-0.2-0.7C-0.3,3.1-0.6,3.2-1,3.2c-0.8,0-1.4-0.4-1.4-1.3c0-0.8,0.5-1.3,1.4-1.3c0.3,0,0.6,0.1,0.8,0.1
				L0,0z"/>
		</g>
		<g id="g2464" transform="matrix(3.8400969,0,0,-3.8400969,201.66399,371.11204)">
			<path id="path2466" class="st2" d="M0,0h-1.6v-0.9h1.8v-0.7h-2.7v4h2.7V1.6h-1.7V0.7l1.6,0V0z"/>
		</g>
		<g id="g2468" transform="matrix(3.8400969,0,0,-3.8400969,205.56057,377.59221)">
			<path id="path2470" class="st2" d="M0,0v4h1.1L2,2.5c0.3-0.4,0.5-0.9,0.7-1.4h0C2.7,1.7,2.7,2.2,2.7,2.8V4h0.9l0-4h-1L1.6,1.5
				C1.4,2,1.1,2.5,0.9,2.9h0c0-0.5,0-1.1,0-1.7V0H0z"/>
		</g>
		<g id="g2472" transform="matrix(3.8400969,0,0,-3.8400969,226.38849,365.17951)">
			<path id="path2474" class="st2" d="M0,0h-1.2v0.8h3.3V0H1v-3.2H0V0z"/>
		</g>
		<g id="g2476" transform="matrix(3.8400969,0,0,-3.8400969,240.98777,369.06455)">
			<path id="path2478" class="st2" d="M0,0h0.4c0.5,0,0.8,0.2,0.8,0.6c0,0.4-0.3,0.6-0.7,0.6c-0.2,0-0.4,0-0.4,0V0z M-1,1.7
				c0.3,0,0.8,0.1,1.3,0.1c0.6,0,1.1-0.1,1.4-0.3C2,1.3,2.1,1,2.1,0.6c0-0.5-0.4-0.9-0.8-1v0c0.3-0.1,0.5-0.4,0.6-0.7
				c0.1-0.5,0.3-1,0.3-1.1h-1C1.2-2.1,1.1-1.8,1-1.3C0.9-0.8,0.7-0.7,0.3-0.7H0v-1.6h-1C-1-2.2-1,1.7-1,1.7z"/>
		</g>
		<g id="g2480" transform="matrix(3.8400969,0,0,-3.8400969,262.35176,371.11204)">
			<path id="path2482" class="st2" d="M0,0h-1.6v-0.9h1.8v-0.7h-2.8v4h2.7V1.6h-1.7V0.7l1.6,0V0z"/>
		</g>
	</g>
</g>
</svg>
