<?xml version="1.0" encoding="UTF-8"?>
<svg xmlns="http://www.w3.org/2000/svg" xmlns:xlink="http://www.w3.org/1999/xlink" width="75pt" height="59pt" viewBox="0 0 75 59" version="1.1">
<g id="surface1">
<path style=" stroke:none;fill-rule:evenodd;fill:rgb(13.699341%,12.199402%,12.5%);fill-opacity:1;" d="M 33.839844 10.074219 L 39.761719 16.570313 L 22.410156 32.382813 L 16.488281 25.882813 L 33.839844 10.074219 "/>
<path style=" stroke:none;fill-rule:evenodd;fill:rgb(96.099854%,50.999451%,12.199402%);fill-opacity:1;" d="M 33.734375 12.269531 L 37.566406 16.464844 L 22.511719 30.1875 L 18.683594 25.984375 L 33.734375 12.269531 "/>
<path style=" stroke:none;fill-rule:evenodd;fill:rgb(55.699158%,73.298645%,81.599426%);fill-opacity:1;" d="M 42.117188 8.476563 C 43.34375 9.820313 43.246094 11.898438 41.902344 13.128906 C 40.558594 14.351563 38.472656 14.253906 37.25 12.910156 C 36.023438 11.566406 36.121094 9.484375 37.46875 8.257813 C 38.808594 7.03125 40.894531 7.132813 42.117188 8.476563 "/>
<path style=" stroke:none;fill-rule:evenodd;fill:rgb(13.699341%,12.199402%,12.5%);fill-opacity:1;" d="M 41.40625 18.378906 L 47.332031 24.875 L 29.980469 40.6875 L 24.058594 34.191406 L 41.40625 18.378906 "/>
<path style=" stroke:none;fill-rule:evenodd;fill:rgb(100%,100%,100%);fill-opacity:1;" d="M 41.308594 20.574219 L 45.136719 24.777344 L 30.082031 38.492188 L 26.257813 34.292969 L 41.308594 20.574219 "/>
<path style=" stroke:none;fill-rule:evenodd;fill:rgb(55.699158%,73.298645%,81.599426%);fill-opacity:1;" d="M 49.691406 16.78125 C 50.914063 18.125 50.816406 20.210938 49.472656 21.433594 C 48.128906 22.65625 46.046875 22.5625 44.820313 21.21875 C 43.59375 19.875 43.691406 17.789063 45.035156 16.566406 C 46.378906 15.339844 48.464844 15.433594 49.691406 16.78125 "/>
<path style=" stroke:none;fill-rule:evenodd;fill:rgb(13.699341%,12.199402%,12.5%);fill-opacity:1;" d="M 49.183594 26.910156 L 55.105469 33.40625 L 37.753906 49.21875 L 31.832031 42.722656 L 49.183594 26.910156 "/>
<path style=" stroke:none;fill-rule:evenodd;fill:rgb(0%,65.098572%,31.399536%);fill-opacity:1;" d="M 49.082031 29.105469 L 52.910156 33.304688 L 37.855469 47.023438 L 34.027344 42.824219 L 49.082031 29.105469 "/>
<path style=" stroke:none;fill-rule:evenodd;fill:rgb(55.699158%,73.298645%,81.599426%);fill-opacity:1;" d="M 57.464844 25.3125 C 58.691406 26.65625 58.59375 28.742188 57.246094 29.964844 C 55.902344 31.191406 53.820313 31.09375 52.59375 29.746094 C 51.367188 28.40625 51.46875 26.324219 52.8125 25.097656 C 54.15625 23.871094 56.238281 23.96875 57.464844 25.3125 "/>
<path style=" stroke:none;fill-rule:nonzero;fill:rgb(13.699341%,12.199402%,12.5%);fill-opacity:1;" d="M 39.878906 52.109375 L 38.441406 50.53125 L 39.136719 49.894531 L 39.382813 50.160156 L 38.871094 50.625 L 39.191406 50.976563 L 39.667969 50.542969 L 39.910156 50.808594 L 39.433594 51.242188 L 39.828125 51.671875 L 40.355469 51.191406 L 40.597656 51.457031 Z M 40.765625 51.304688 L 39.332031 49.738281 L 39.527344 49.566406 L 40.710938 50.867188 L 41.183594 50.433594 L 41.429688 50.699219 Z M 41.566406 50.574219 L 40.125 48.992188 L 40.824219 48.355469 L 41.070313 48.625 L 40.558594 49.085938 L 40.875 49.4375 L 41.351563 49.003906 L 41.59375 49.273438 L 41.117188 49.707031 L 41.511719 50.136719 L 42.039063 49.65625 L 42.28125 49.921875 Z M 42.519531 48.640625 L 42.792969 48.570313 C 42.921875 48.773438 42.992188 48.949219 43.003906 49.09375 C 43.011719 49.234375 42.964844 49.351563 42.867188 49.4375 C 42.742188 49.550781 42.582031 49.574219 42.390625 49.515625 C 42.164063 49.445313 41.933594 49.285156 41.703125 49.027344 C 41.457031 48.757813 41.308594 48.507813 41.261719 48.273438 C 41.214844 48.070313 41.261719 47.914063 41.386719 47.792969 C 41.496094 47.699219 41.628906 47.664063 41.789063 47.699219 C 41.902344 47.726563 42.039063 47.796875 42.1875 47.914063 L 42.066406 48.160156 C 41.976563 48.082031 41.890625 48.039063 41.816406 48.027344 C 41.738281 48.015625 41.675781 48.03125 41.628906 48.078125 C 41.554688 48.136719 41.539063 48.230469 41.570313 48.355469 C 41.601563 48.476563 41.703125 48.636719 41.878906 48.828125 C 42.0625 49.027344 42.214844 49.148438 42.332031 49.195313 C 42.453125 49.242188 42.542969 49.230469 42.617188 49.167969 C 42.664063 49.125 42.683594 49.054688 42.671875 48.972656 C 42.660156 48.882813 42.609375 48.773438 42.519531 48.640625 Z M 43.609375 48.714844 L 42.414063 47.398438 L 42.132813 47.65625 L 41.886719 47.386719 L 42.636719 46.707031 L 42.878906 46.972656 L 42.601563 47.226563 L 43.800781 48.539063 Z M 44.195313 48.175781 L 42.753906 46.59375 L 42.945313 46.425781 L 44.386719 48.007813 Z M 43.816406 47.089844 C 43.648438 46.902344 43.527344 46.730469 43.457031 46.570313 C 43.382813 46.414063 43.355469 46.273438 43.367188 46.152344 C 43.378906 46.035156 43.429688 45.929688 43.523438 45.847656 C 43.660156 45.722656 43.835938 45.695313 44.046875 45.757813 C 44.261719 45.820313 44.488281 45.984375 44.726563 46.25 C 44.96875 46.515625 45.113281 46.761719 45.15625 46.992188 C 45.195313 47.195313 45.152344 47.359375 45.015625 47.480469 C 44.878906 47.605469 44.710938 47.636719 44.515625 47.582031 C 44.289063 47.515625 44.054688 47.351563 43.816406 47.089844 Z M 44.003906 46.902344 C 44.171875 47.085938 44.324219 47.199219 44.453125 47.242188 C 44.585938 47.285156 44.691406 47.277344 44.765625 47.210938 C 44.839844 47.140625 44.859375 47.039063 44.828125 46.902344 C 44.792969 46.769531 44.695313 46.605469 44.523438 46.421875 C 44.355469 46.238281 44.207031 46.121094 44.082031 46.078125 C 43.953125 46.035156 43.851563 46.046875 43.773438 46.117188 C 43.695313 46.1875 43.671875 46.292969 43.703125 46.425781 C 43.734375 46.554688 43.835938 46.714844 44.003906 46.902344 Z M 45.597656 46.902344 L 44.15625 45.320313 L 44.34375 45.152344 L 45.6875 45.855469 L 44.726563 44.796875 L 44.90625 44.636719 L 46.347656 46.21875 L 46.15625 46.394531 L 44.835938 45.707031 L 45.777344 46.738281 Z M 46.988281 44.570313 L 47.265625 44.5 C 47.394531 44.703125 47.46875 44.871094 47.472656 45.015625 C 47.480469 45.15625 47.433594 45.277344 47.335938 45.367188 C 47.214844 45.476563 47.054688 45.503906 46.859375 45.441406 C 46.632813 45.371094 46.40625 45.210938 46.171875 44.953125 C 45.925781 44.683594 45.777344 44.433594 45.726563 44.199219 C 45.683594 44 45.726563 43.835938 45.859375 43.71875 C 45.964844 43.621094 46.097656 43.59375 46.261719 43.625 C 46.375 43.648438 46.507813 43.71875 46.65625 43.839844 L 46.539063 44.085938 C 46.445313 44.011719 46.363281 43.964844 46.289063 43.957031 C 46.210938 43.941406 46.144531 43.957031 46.09375 44 C 46.027344 44.066406 46.007813 44.160156 46.039063 44.28125 C 46.074219 44.40625 46.175781 44.5625 46.351563 44.757813 C 46.535156 44.953125 46.683594 45.074219 46.804688 45.121094 C 46.921875 45.167969 47.015625 45.15625 47.085938 45.097656 C 47.136719 45.046875 47.15625 44.980469 47.144531 44.894531 C 47.132813 44.808594 47.078125 44.699219 46.988281 44.570313 Z M 47.117188 44.085938 C 46.945313 43.898438 46.824219 43.726563 46.753906 43.566406 C 46.683594 43.40625 46.65625 43.269531 46.664063 43.148438 C 46.675781 43.027344 46.726563 42.925781 46.820313 42.839844 C 46.957031 42.71875 47.132813 42.6875 47.347656 42.753906 C 47.558594 42.820313 47.785156 42.980469 48.023438 43.242188 C 48.265625 43.507813 48.410156 43.753906 48.453125 43.984375 C 48.492188 44.191406 48.449219 44.351563 48.3125 44.476563 C 48.175781 44.601563 48.007813 44.636719 47.8125 44.578125 C 47.585938 44.511719 47.351563 44.34375 47.117188 44.085938 Z M 47.300781 43.894531 C 47.46875 44.078125 47.621094 44.191406 47.753906 44.234375 C 47.882813 44.285156 47.988281 44.273438 48.066406 44.203125 C 48.136719 44.136719 48.160156 44.03125 48.125 43.898438 C 48.09375 43.765625 47.992188 43.605469 47.820313 43.417969 C 47.652344 43.230469 47.507813 43.117188 47.378906 43.074219 C 47.25 43.027344 47.148438 43.042969 47.070313 43.113281 C 46.996094 43.183594 46.96875 43.285156 47 43.417969 C 47.035156 43.550781 47.132813 43.710938 47.300781 43.894531 Z M 48.890625 43.902344 L 47.449219 42.320313 L 47.734375 42.054688 L 48.886719 42.980469 L 48.078125 41.75 L 48.363281 41.484375 L 49.804688 43.066406 L 49.625 43.230469 L 48.492188 41.984375 L 49.4375 43.402344 L 49.257813 43.566406 L 47.933594 42.492188 L 49.070313 43.734375 Z M 49.992188 42.898438 L 48.546875 41.316406 L 48.835938 41.058594 L 49.988281 41.980469 L 49.171875 40.746094 L 49.460938 40.488281 L 50.902344 42.066406 L 50.726563 42.226563 L 49.589844 40.980469 L 50.535156 42.398438 L 50.351563 42.566406 L 49.03125 41.492188 L 50.167969 42.738281 Z M 51.085938 41.898438 L 49.644531 40.316406 L 49.832031 40.148438 L 51.277344 41.726563 Z M 50.941406 41.089844 L 51.101563 40.886719 C 51.304688 41.074219 51.464844 41.113281 51.582031 41.003906 C 51.636719 40.953125 51.664063 40.890625 51.660156 40.820313 C 51.65625 40.746094 51.628906 40.679688 51.570313 40.621094 C 51.539063 40.585938 51.503906 40.558594 51.46875 40.542969 C 51.433594 40.53125 51.398438 40.527344 51.359375 40.53125 C 51.320313 40.535156 51.242188 40.558594 51.117188 40.605469 C 51.003906 40.644531 50.910156 40.664063 50.835938 40.65625 C 50.761719 40.652344 50.683594 40.628906 50.605469 40.585938 C 50.523438 40.539063 50.449219 40.480469 50.382813 40.40625 C 50.304688 40.320313 50.246094 40.230469 50.210938 40.136719 C 50.179688 40.039063 50.167969 39.949219 50.1875 39.871094 C 50.207031 39.789063 50.25 39.714844 50.328125 39.648438 C 50.4375 39.546875 50.5625 39.511719 50.699219 39.535156 C 50.835938 39.558594 50.980469 39.648438 51.121094 39.800781 L 50.941406 39.988281 C 50.859375 39.910156 50.785156 39.867188 50.726563 39.859375 C 50.667969 39.851563 50.613281 39.871094 50.5625 39.917969 C 50.511719 39.964844 50.484375 40.015625 50.484375 40.070313 C 50.484375 40.125 50.503906 40.175781 50.539063 40.21875 C 50.582031 40.261719 50.628906 40.285156 50.675781 40.289063 C 50.734375 40.296875 50.820313 40.277344 50.941406 40.230469 C 51.074219 40.179688 51.175781 40.15625 51.257813 40.164063 C 51.339844 40.164063 51.421875 40.191406 51.507813 40.234375 C 51.589844 40.28125 51.671875 40.351563 51.757813 40.449219 C 51.886719 40.585938 51.957031 40.726563 51.984375 40.875 C 52.007813 41.023438 51.953125 41.160156 51.820313 41.28125 C 51.589844 41.492188 51.296875 41.425781 50.941406 41.089844 Z M 51.820313 40.289063 L 51.976563 40.085938 C 52.183594 40.273438 52.347656 40.3125 52.460938 40.203125 C 52.519531 40.152344 52.542969 40.089844 52.539063 40.015625 C 52.539063 39.945313 52.503906 39.878906 52.449219 39.816406 C 52.417969 39.785156 52.386719 39.757813 52.351563 39.742188 C 52.3125 39.730469 52.28125 39.722656 52.242188 39.730469 C 52.203125 39.734375 52.121094 39.757813 51.996094 39.800781 C 51.882813 39.84375 51.789063 39.859375 51.714844 39.855469 C 51.644531 39.851563 51.566406 39.828125 51.484375 39.78125 C 51.402344 39.738281 51.332031 39.679688 51.261719 39.605469 C 51.183594 39.519531 51.128906 39.429688 51.089844 39.335938 C 51.054688 39.234375 51.050781 39.148438 51.066406 39.070313 C 51.085938 38.988281 51.132813 38.914063 51.203125 38.847656 C 51.316406 38.746094 51.441406 38.710938 51.578125 38.730469 C 51.714844 38.757813 51.855469 38.847656 52 39 L 51.824219 39.1875 C 51.738281 39.109375 51.664063 39.066406 51.605469 39.054688 C 51.550781 39.050781 51.496094 39.066406 51.441406 39.113281 C 51.390625 39.160156 51.363281 39.214844 51.363281 39.269531 C 51.363281 39.324219 51.378906 39.371094 51.421875 39.417969 C 51.460938 39.460938 51.507813 39.480469 51.558594 39.488281 C 51.609375 39.496094 51.699219 39.476563 51.820313 39.429688 C 51.953125 39.378906 52.054688 39.355469 52.136719 39.359375 C 52.21875 39.363281 52.300781 39.386719 52.386719 39.433594 C 52.464844 39.476563 52.554688 39.546875 52.640625 39.644531 C 52.761719 39.78125 52.839844 39.925781 52.863281 40.074219 C 52.886719 40.222656 52.835938 40.359375 52.703125 40.476563 C 52.472656 40.691406 52.175781 40.625 51.820313 40.289063 Z M 53.214844 39.960938 L 51.769531 38.378906 L 51.960938 38.207031 L 53.402344 39.789063 Z M 52.835938 38.875 C 52.664063 38.6875 52.542969 38.515625 52.472656 38.355469 C 52.402344 38.199219 52.371094 38.054688 52.382813 37.9375 C 52.394531 37.820313 52.445313 37.714844 52.539063 37.632813 C 52.675781 37.507813 52.847656 37.480469 53.0625 37.542969 C 53.277344 37.605469 53.503906 37.769531 53.742188 38.03125 C 53.980469 38.296875 54.125 38.542969 54.171875 38.773438 C 54.210938 38.976563 54.164063 39.144531 54.03125 39.265625 C 53.894531 39.390625 53.726563 39.421875 53.527344 39.367188 C 53.300781 39.300781 53.070313 39.136719 52.835938 38.875 Z M 53.019531 38.6875 C 53.183594 38.867188 53.335938 38.984375 53.46875 39.027344 C 53.601563 39.070313 53.707031 39.058594 53.78125 38.996094 C 53.855469 38.921875 53.878906 38.824219 53.84375 38.6875 C 53.8125 38.554688 53.707031 38.390625 53.539063 38.203125 C 53.371094 38.023438 53.222656 37.90625 53.097656 37.863281 C 52.964844 37.820313 52.867188 37.832031 52.789063 37.902344 C 52.710938 37.972656 52.6875 38.078125 52.71875 38.210938 C 52.753906 38.339844 52.851563 38.5 53.019531 38.6875 Z M 54.613281 38.6875 L 53.171875 37.101563 L 53.355469 36.9375 L 54.707031 37.640625 L 53.746094 36.582031 L 53.921875 36.421875 L 55.363281 38 L 55.171875 38.175781 L 53.851563 37.492188 L 54.789063 38.523438 Z M 55.179688 36.738281 C 55.007813 36.550781 54.886719 36.378906 54.816406 36.21875 C 54.746094 36.058594 54.71875 35.921875 54.726563 35.800781 C 54.738281 35.679688 54.789063 35.582031 54.882813 35.492188 C 55.019531 35.371094 55.195313 35.339844 55.410156 35.40625 C 55.621094 35.472656 55.847656 35.632813 56.089844 35.894531 C 56.332031 36.15625 56.472656 36.40625 56.515625 36.640625 C 56.558594 36.84375 56.511719 37.003906 56.375 37.128906 C 56.238281 37.253906 56.074219 37.289063 55.875 37.226563 C 55.648438 37.160156 55.417969 36.996094 55.179688 36.738281 Z M 55.367188 36.546875 C 55.535156 36.730469 55.683594 36.84375 55.816406 36.890625 C 55.945313 36.9375 56.050781 36.925781 56.128906 36.855469 C 56.199219 36.789063 56.21875 36.683594 56.1875 36.550781 C 56.15625 36.414063 56.054688 36.257813 55.886719 36.070313 C 55.714844 35.882813 55.570313 35.773438 55.441406 35.726563 C 55.316406 35.679688 55.210938 35.695313 55.132813 35.765625 C 55.058594 35.839844 55.035156 35.9375 55.0625 36.070313 C 55.09375 36.207031 55.199219 36.363281 55.367188 36.546875 Z M 56.957031 36.546875 L 55.519531 34.964844 L 56.164063 34.378906 L 56.40625 34.644531 L 55.953125 35.058594 L 56.292969 35.4375 L 56.6875 35.074219 L 56.929688 35.34375 L 56.535156 35.703125 L 57.148438 36.378906 Z M 58.125 35.488281 L 56.679688 33.90625 L 56.875 33.730469 L 58.3125 35.3125 Z M 58.496094 35.144531 L 57.054688 33.5625 L 57.242188 33.394531 L 58.59375 34.097656 L 57.628906 33.039063 L 57.804688 32.882813 L 59.25 34.460938 L 59.058594 34.636719 L 57.734375 33.949219 L 58.675781 34.980469 Z M 58.003906 32.699219 L 58.355469 32.382813 C 58.445313 32.300781 58.519531 32.253906 58.59375 32.238281 C 58.65625 32.226563 58.742188 32.234375 58.839844 32.265625 C 58.933594 32.292969 59.039063 32.347656 59.152344 32.429688 C 59.265625 32.511719 59.394531 32.632813 59.535156 32.78125 C 59.65625 32.917969 59.753906 33.050781 59.824219 33.171875 C 59.890625 33.292969 59.9375 33.398438 59.957031 33.488281 C 59.976563 33.578125 59.972656 33.660156 59.953125 33.738281 C 59.929688 33.808594 59.882813 33.886719 59.804688 33.953125 L 59.449219 34.28125 Z M 58.4375 32.792969 L 59.394531 33.839844 L 59.535156 33.710938 C 59.597656 33.65625 59.632813 33.605469 59.652344 33.566406 C 59.660156 33.523438 59.660156 33.480469 59.652344 33.429688 C 59.640625 33.382813 59.605469 33.320313 59.558594 33.238281 C 59.503906 33.160156 59.425781 33.066406 59.328125 32.953125 C 59.21875 32.835938 59.128906 32.75 59.054688 32.6875 C 58.980469 32.632813 58.914063 32.597656 58.855469 32.578125 C 58.792969 32.5625 58.738281 32.566406 58.695313 32.585938 C 58.65625 32.601563 58.601563 32.644531 58.527344 32.714844 Z M 60.394531 33.417969 L 58.953125 31.835938 L 59.144531 31.664063 L 60.585938 33.242188 Z M 61.617188 32.300781 L 61.414063 32.492188 L 61 32.207031 L 60.621094 32.550781 L 60.875 32.980469 L 60.671875 33.164063 L 59.59375 31.25 L 59.796875 31.066406 Z M 60.699219 31.996094 L 60.03125 31.527344 L 60.441406 32.230469 Z M 60.699219 31.996094 "/>
<path style=" stroke:none;fill-rule:nonzero;fill:rgb(13.699341%,12.199402%,12.5%);fill-opacity:1;" d="M 15.652344 28.363281 L 15.785156 27.9375 L 15.648438 27.785156 L 15.515625 28.214844 Z M 15.175781 29.125 L 14.609375 28.507813 L 14.988281 28.179688 C 15.191406 27.996094 15.4375 27.558594 15.109375 27.199219 C 14.90625 26.972656 14.621094 26.996094 14.445313 27.15625 C 14.253906 27.332031 14.210938 27.664063 14.46875 28.128906 L 14.347656 28.210938 L 14.191406 28.039063 C 14.128906 27.96875 14.046875 27.992188 14 28.035156 C 13.878906 28.140625 13.875 28.753906 13.972656 28.859375 C 14.039063 28.933594 14.117188 28.902344 14.300781 28.742188 L 14.890625 29.382813 Z M 14.910156 27.765625 L 14.625 28.003906 C 14.484375 27.773438 14.496094 27.609375 14.636719 27.480469 C 14.742188 27.382813 14.933594 27.382813 14.996094 27.453125 C 15.042969 27.507813 15.066406 27.640625 14.910156 27.765625 Z M 14.53125 30.203125 L 16.058594 28.8125 L 16.433594 29.222656 L 16.5625 28.792969 L 15.691406 27.835938 L 15.558594 28.265625 L 15.785156 28.511719 L 14.472656 29.707031 Z M 15.242188 30.980469 L 16.773438 29.59375 L 17.144531 30 L 17.273438 29.574219 L 16.398438 28.613281 L 16.273438 29.042969 L 16.496094 29.292969 L 15.179688 30.488281 Z M 16.976563 29.820313 L 17.453125 30.339844 L 16.984375 30.765625 C 16.949219 30.800781 16.910156 30.804688 16.890625 30.785156 C 16.839844 30.722656 16.847656 30.570313 16.765625 30.480469 C 16.722656 30.433594 16.597656 30.445313 16.570313 30.480469 C 16.515625 30.53125 16.480469 30.675781 16.441406 30.933594 L 16.261719 32.140625 L 16.488281 32.152344 C 16.515625 31.707031 16.542969 31.4375 16.589844 31.257813 C 16.785156 31.296875 16.992188 31.289063 17.125 31.171875 L 17.714844 30.632813 L 18.238281 31.203125 L 18.371094 30.773438 L 17.105469 29.390625 Z M 19.054688 32.101563 L 18.789063 32.34375 L 18.378906 31.898438 C 18.089844 31.574219 17.773438 31.597656 17.601563 31.753906 C 17.394531 31.945313 17.296875 32.238281 17.128906 33.007813 L 17.339844 33.042969 C 17.386719 32.695313 17.484375 32.390625 17.640625 32.25 C 17.8125 32.09375 17.996094 32.042969 18.199219 32.265625 L 18.511719 32.609375 L 17.75 33.304688 L 17.816406 33.800781 L 19.339844 32.410156 L 19.648438 32.75 L 19.78125 32.320313 L 18.210938 30.597656 L 18.078125 31.027344 Z M 20.28125 33.445313 L 20.480469 33.664063 L 19.167969 34.863281 L 19.230469 35.355469 L 20.757813 33.964844 L 21.128906 34.375 L 21.261719 33.945313 L 20.953125 33.609375 C 20.976563 33.570313 21.019531 33.539063 21.054688 33.507813 C 21.269531 33.308594 21.519531 33.285156 21.726563 33.519531 C 21.949219 33.757813 22.171875 34.371094 22.179688 34.777344 L 22.347656 34.738281 C 22.371094 34.371094 22.152344 33.433594 21.882813 33.140625 C 21.621094 32.851563 21.300781 32.800781 21.054688 33.023438 C 20.925781 33.140625 20.84375 33.300781 20.800781 33.445313 L 20.410156 33.015625 Z M 21.355469 35.832031 L 20.640625 36.480469 L 20.707031 36.980469 L 22.234375 35.585938 L 22.539063 35.925781 L 22.671875 35.496094 L 21.101563 33.773438 L 20.96875 34.203125 L 21.949219 35.273438 L 21.628906 35.566406 L 20.882813 34.746094 C 20.84375 34.695313 20.753906 34.703125 20.710938 34.742188 C 20.578125 34.863281 20.492188 35.414063 20.570313 35.5 C 20.628906 35.566406 20.691406 35.582031 20.742188 35.53125 L 20.863281 35.421875 C 20.90625 35.382813 20.953125 35.390625 20.980469 35.425781 Z M 22.519531 37.910156 L 22.207031 38.195313 L 22.273438 38.695313 L 23.796875 37.304688 L 24.105469 37.640625 L 24.230469 37.210938 L 22.511719 35.324219 L 22.386719 35.75 L 23.511719 36.992188 L 23.050781 37.414063 C 23.074219 37.226563 23.066406 37.019531 23.058594 36.929688 C 23.046875 36.84375 22.953125 36.699219 22.871094 36.613281 C 22.578125 36.289063 22.160156 36.246094 21.921875 36.464844 C 21.652344 36.710938 21.613281 37.316406 21.898438 37.621094 C 22.023438 37.765625 22.222656 37.851563 22.519531 37.910156 Z M 21.984375 37.25 C 21.902344 37.152344 21.902344 37.019531 22.015625 36.910156 C 22.195313 36.75 22.472656 36.746094 22.632813 36.925781 C 22.785156 37.089844 22.878906 37.328125 22.886719 37.574219 L 22.84375 37.609375 C 22.570313 37.546875 22.117188 37.390625 21.984375 37.25 Z M 22.921875 39.40625 L 24.449219 38.019531 L 24.824219 38.425781 L 24.949219 37.996094 L 24.078125 37.039063 L 23.949219 37.46875 L 24.175781 37.714844 L 22.859375 38.914063 Z M 24.535156 37.59375 L 24.667969 37.742188 C 24.734375 37.527344 24.851563 37.308594 24.925781 37.242188 C 25.039063 37.136719 25.140625 37.140625 25.234375 37.238281 C 25.296875 37.308594 25.277344 37.410156 25.15625 37.582031 L 25.304688 37.671875 C 25.621094 37.304688 25.59375 37.0625 25.460938 36.917969 C 25.300781 36.746094 25.027344 36.714844 24.828125 36.890625 C 24.699219 37.015625 24.59375 37.363281 24.535156 37.59375 Z M 25.113281 40.722656 L 24.785156 41.023438 L 24.851563 41.523438 L 26.375 40.132813 L 26.683594 40.46875 L 26.816406 40.042969 L 24.816406 37.847656 L 24.6875 38.277344 L 26.089844 39.824219 L 25.5 40.359375 C 25.003906 40.355469 24.625 40.25 24.445313 40.054688 C 24.375 39.976563 24.367188 39.90625 24.441406 39.839844 C 24.554688 39.734375 24.8125 39.699219 24.949219 39.757813 C 25.042969 39.789063 25.148438 39.890625 25.234375 39.984375 L 25.472656 40.246094 L 25.601563 39.816406 L 24.566406 38.683594 L 24.433594 39.109375 L 24.613281 39.308594 C 24.527344 39.328125 24.449219 39.363281 24.359375 39.445313 C 24.148438 39.636719 24.125 40.175781 24.367188 40.445313 C 24.484375 40.574219 24.773438 40.691406 25.113281 40.722656 Z M 26.898438 41.917969 L 26.191406 42.566406 L 26.25 43.066406 L 27.78125 41.671875 L 28.089844 42.011719 L 28.21875 41.585938 L 26.648438 39.859375 L 26.519531 40.289063 L 27.496094 41.359375 L 27.175781 41.652344 L 26.429688 40.832031 C 26.386719 40.78125 26.300781 40.789063 26.261719 40.828125 C 26.125 40.949219 26.035156 41.503906 26.113281 41.585938 C 26.175781 41.652344 26.238281 41.667969 26.289063 41.617188 L 26.410156 41.507813 C 26.453125 41.46875 26.496094 41.476563 26.53125 41.511719 Z M 28.234375 43.394531 L 28.050781 43.339844 C 27.832031 43.882813 27.832031 44.449219 28.089844 44.730469 C 28.363281 45.03125 28.742188 45.066406 28.972656 44.855469 C 29.027344 44.804688 29.089844 44.730469 29.125 44.648438 L 29.140625 44.648438 C 29.152344 44.746094 29.261719 45 29.296875 45.035156 C 29.335938 45.078125 29.378906 45.121094 29.421875 45.140625 L 28.941406 45.585938 L 29.003906 46.085938 L 30.53125 44.691406 L 30.839844 45.03125 L 30.96875 44.601563 L 30.179688 43.734375 L 30.042969 44.160156 L 30.246094 44.378906 L 29.828125 44.761719 C 29.742188 44.84375 29.472656 44.75 29.339844 44.609375 C 29.269531 44.53125 29.21875 44.382813 29.222656 44.230469 C 29.40625 44.273438 29.515625 44.234375 29.597656 44.160156 C 29.839844 43.9375 29.855469 43.296875 29.59375 43.007813 C 29.511719 42.917969 29.230469 42.742188 29.0625 42.664063 L 28.910156 43.09375 C 29.199219 43.230469 29.457031 43.402344 29.515625 43.480469 C 29.59375 43.566406 29.613281 43.652344 29.519531 43.734375 C 29.371094 43.875 29.097656 43.835938 28.757813 43.558594 C 28.683594 43.5 28.648438 43.5 28.632813 43.515625 C 28.609375 43.539063 28.558594 43.78125 28.546875 43.933594 C 28.691406 44.039063 28.902344 44.140625 29.035156 44.179688 C 29.011719 44.269531 28.945313 44.382813 28.851563 44.46875 C 28.699219 44.609375 28.429688 44.5625 28.246094 44.359375 C 28.074219 44.167969 28.0625 43.832031 28.234375 43.394531 Z M 29.660156 46.800781 L 31.183594 45.410156 L 31.558594 45.820313 L 31.6875 45.390625 L 30.816406 44.433594 L 30.683594 44.859375 L 30.910156 45.109375 L 29.597656 46.304688 Z M 31.53125 47.796875 L 31.199219 48.066406 L 31.28125 48.582031 L 32.808594 47.1875 L 33.117188 47.527344 L 33.246094 47.101563 L 31.519531 45.203125 L 31.386719 45.632813 L 31.875 46.164063 C 31.84375 46.28125 31.777344 46.382813 31.734375 46.421875 C 31.707031 46.449219 31.621094 46.449219 31.574219 46.429688 C 31.484375 46.398438 31.210938 46.253906 31.117188 46.179688 C 30.761719 46.65625 30.710938 47.214844 30.980469 47.511719 C 31.089844 47.632813 31.332031 47.75 31.53125 47.796875 Z M 32.523438 46.878906 L 31.890625 47.457031 C 31.644531 47.429688 31.246094 47.253906 31.128906 47.128906 C 30.980469 46.964844 30.988281 46.847656 31.082031 46.761719 C 31.152344 46.699219 31.226563 46.710938 31.339844 46.78125 C 31.589844 46.945313 31.683594 46.96875 31.75 46.910156 C 31.808594 46.851563 31.9375 46.601563 32.050781 46.359375 Z M 31.9375 49.300781 L 33.460938 47.90625 L 33.835938 48.320313 L 33.964844 47.890625 L 33.09375 46.929688 L 32.960938 47.359375 L 33.1875 47.605469 L 31.875 48.800781 Z M 33.527344 47.578125 L 33.660156 47.628906 C 33.808594 47.132813 33.925781 46.777344 33.921875 46.496094 C 33.921875 46.269531 33.839844 46.160156 33.785156 46.101563 C 33.710938 46.019531 33.609375 45.925781 33.550781 45.980469 C 33.503906 46.019531 33.492188 46.0625 33.378906 46.402344 C 33.441406 46.4375 33.53125 46.503906 33.59375 46.566406 C 33.652344 46.632813 33.675781 46.722656 33.671875 46.808594 C 33.664063 47 33.632813 47.1875 33.527344 47.578125 Z M 34.378906 48.910156 L 34.777344 49.351563 L 33.46875 50.550781 L 33.527344 51.046875 L 35.054688 49.652344 L 35.359375 49.992188 L 35.492188 49.566406 L 33.828125 47.738281 L 33.699219 48.167969 L 34.09375 48.601563 L 33.613281 49.039063 L 33.449219 48.859375 C 33.410156 48.816406 33.3125 48.8125 33.28125 48.839844 C 33.128906 48.980469 33.230469 49.667969 33.277344 49.71875 C 33.347656 49.792969 33.429688 49.777344 33.53125 49.6875 L 34.378906 48.910156 "/>
</g>
</svg>
